<?xml version="1.0" encoding="utf-8"?>
<!-- Generator: Adobe Illustrator 22.0.1, SVG Export Plug-In . SVG Version: 6.00 Build 0)  -->
<svg version="1.1" id="Layer_1" xmlns="http://www.w3.org/2000/svg" xmlns:xlink="http://www.w3.org/1999/xlink" x="0px" y="0px"
	 viewBox="0 0 191.9 48.6" style="enable-background:new 0 0 191.9 48.6;" xml:space="preserve">
<style type="text/css">
	.st0{fill:#98B0B2;}
	.st1{fill:#92ABAE;}
	.st2{fill:#A6BBBC;}
	.st3{fill:#8FA9AB;}
	.st4{fill:#8EA8AA;}
	.st5{fill:#A4B9BB;}
	.st6{fill:#9EB5B7;}
	.st7{fill:#A9BDBF;}
	.st8{fill:#85A1A3;}
	.st9{fill:#FFFFFF;}
	.st10{fill:#688B8E;}
	.st11{fill:#94B5BA;}
</style>
<title>logo-inverted</title>
<circle class="st0" cx="24.3" cy="24.3" r="24.3"/>
<polygon class="st1" points="24.4,43.2 40.5,33.5 40.5,15.1 24.4,5.4 "/>
<path class="st2" d="M8.2,6.1c-4,3.6-6.7,8.3-7.7,13.6l7.7-4.6V6.1L8.2,6.1z"/>
<path class="st3" d="M24.4,5.4l-7.2-4.3c-3.3,1-6.4,2.7-9,5.1v9L24.4,5.4z"/>
<path class="st2" d="M31.5,1.1c-4.7-1.4-9.7-1.4-14.4,0l7.2,4.3L31.5,1.1z"/>
<path class="st4" d="M48.2,19.7c-1-5.3-3.7-10-7.7-13.6v8.9L48.2,19.7z"/>
<path class="st5" d="M40.5,15.1V6.1c-2.6-2.3-5.6-4-8.9-5.1l-7.2,4.3L40.5,15.1z"/>
<path class="st3" d="M17.1,47.6c4.7,1.5,9.7,1.5,14.5,0l-7.2-4.3L17.1,47.6z"/>
<path class="st6" d="M40.5,42.5c4-3.6,6.7-8.3,7.7-13.6l-7.7,4.6V42.5L40.5,42.5z"/>
<path class="st7" d="M24.4,43.2l7.2,4.3c3.3-1,6.3-2.7,8.9-5v-9L24.4,43.2z"/>
<path class="st8" d="M48.2,19.7l-7.7-4.6v18.4l7.7-4.6C48.8,25.9,48.8,22.8,48.2,19.7z"/>
<path class="st7" d="M8.2,15.1l-7.7,4.6c-0.6,3-0.6,6.1,0,9.1l7.7,4.6V15.1z"/>
<path class="st0" d="M8.2,33.5v9c2.6,2.3,5.6,4,8.9,5.1l7.2-4.3L8.2,33.5z"/>
<path class="st1" d="M0.4,28.8c1,5.3,3.7,10.1,7.7,13.6v-9L0.4,28.8z"/>
<path class="st0" d="M24.4,5.4L8.2,15.1v18.4l16.2,9.7 M24.4,5.4v11.4h1.4v14.9h-1.4 M24.4,43.2V31.8h-1.4V16.9h1.4"/>
<rect x="21.1" y="16.4" class="st9" width="6.4" height="15.8"/>
<rect x="23.2" class="st9" width="2.3" height="16.9"/>
<rect x="23.2" y="31.8" class="st9" width="2.3" height="16.9"/>
<path class="st10" d="M69.8,45.6v-5.9h0.7v5.9H69.8z"/>
<path class="st11" d="M77.7,45.6l-3.5-4.7v4.7h-0.7v-5.9h0.7l3.5,4.8v-4.8h0.7v5.9H77.7z"/>
<path class="st11" d="M85.6,45.6l-3.5-4.7v4.7h-0.7v-5.9h0.7l3.5,4.8v-4.8h0.7v5.9H85.6L85.6,45.6z"/>
<path class="st11" d="M94.9,42.6c0,1.7-1.3,3.1-3,3.2c-1.7,0-3.1-1.3-3.2-3c0-1.7,1.3-3.1,3-3.2c0,0,0.1,0,0.1,0
	C93.5,39.6,94.9,40.9,94.9,42.6C94.9,42.5,94.9,42.6,94.9,42.6z M89.4,42.6c0,1.3,1,2.4,2.3,2.5c1.3,0,2.4-1,2.5-2.3
	c0-1.3-1-2.4-2.3-2.5c0,0-0.1,0-0.1,0C90.5,40.2,89.4,41.3,89.4,42.6C89.4,42.6,89.4,42.6,89.4,42.6L89.4,42.6z"/>
<path class="st11" d="M98.8,45.6l-2.4-5.9h0.7l2,5.1l2-5.1h0.8l-2.4,5.9H98.8L98.8,45.6z"/>
<path class="st11" d="M104.1,44.1l-0.7,1.5h-0.7l2.6-5.9h0.7l2.6,5.9H108l-0.7-1.5H104.1z M105.8,40.4l-1.3,3h2.6L105.8,40.4z"/>
<path class="st11" d="M112.1,40.3v5.3h-0.7v-5.3h-1.9v-0.6h4.5v0.6H112.1L112.1,40.3z"/>
<path class="st11" d="M116.2,45.6v-5.9h0.7v5.9H116.2L116.2,45.6z"/>
<path class="st11" d="M121.4,45.6l-2.4-5.9h0.7l2,5.1l2-5.1h0.7l-2.4,5.9H121.4L121.4,45.6z"/>
<path class="st11" d="M127.3,40.3v1.9h3v0.6h-3v2h3.4v0.6h-4.1v-5.9h4v0.6L127.3,40.3L127.3,40.3z"/>
<path class="st11" d="M136.8,45.6v-5.9h0.7v5.9H136.8z"/>
<path class="st11" d="M144.7,45.6l-3.5-4.7v4.7h-0.7v-5.9h0.7l3.5,4.8v-4.8h0.7v5.9H144.7L144.7,45.6z"/>
<path class="st11" d="M149.9,45.6l-2.4-5.9h0.7l2,5.1l2-5.1h0.7l-2.4,5.9H149.9z"/>
<path class="st11" d="M155.8,40.3v1.9h3v0.6h-3v2h3.4v0.6h-4.1v-5.9h4v0.6L155.8,40.3L155.8,40.3z"/>
<path class="st11" d="M165.5,40.2l-0.3,0.6c-0.5-0.3-1.1-0.5-1.6-0.5c-0.8,0-1.3,0.3-1.3,0.8c0,1.5,3.3,0.7,3.3,2.9
	c0,1-0.9,1.6-2.1,1.6c-0.8,0-1.6-0.3-2.3-0.9l0.3-0.6c0.5,0.5,1.3,0.8,2,0.8c0.9,0,1.4-0.4,1.4-0.9c0-1.6-3.3-0.7-3.3-2.8
	c0-0.9,0.8-1.5,2-1.5C164.2,39.6,164.9,39.8,165.5,40.2z"/>
<path class="st11" d="M169.9,40.3v5.3h-0.7v-5.3h-1.9v-0.6h4.6v0.6H169.9z"/>
<path class="st11" d="M174.1,45.6v-5.9h0.7v5.9H174.1z"/>
<path class="st11" d="M181.9,45.6l-3.5-4.7v4.7h-0.7v-5.9h0.7l3.5,4.8v-4.8h0.7v5.9H181.9z"/>
<path class="st11" d="M190.3,42.7v2.1c-0.6,0.5-1.4,0.8-2.2,0.8c-1.7,0-3-1.3-3-3s1.3-3,3-3c0.8,0,1.6,0.3,2.2,0.8l-0.4,0.6
	c-0.5-0.4-1.1-0.7-1.8-0.7c-1.3,0-2.3,1-2.3,2.3c0,1.3,1,2.3,2.3,2.3c0,0,0,0,0,0c0.6,0,1.1-0.2,1.5-0.5v-1.8H190.3L190.3,42.7z"/>
<path class="st11" d="M79.1,30.1l-10-24.7h3l8.5,21.4l8.5-21.4h3L82,30.1H79.1L79.1,30.1z"/>
<path class="st11" d="M99.6,23.9l-2.8,6.2h-3l11.1-24.7h2.9l11.1,24.7h-3.1l-2.8-6.2l-1.2-2.7l-5.6-12.5l-5.5,12.5L99.6,23.9z"/>
<path class="st11" d="M145.2,20c0,6.4-3.9,10.3-10.4,10.3s-10.4-3.9-10.4-10.3V5.4h2.8V20c0,4.8,2.9,7.6,7.6,7.6s7.5-2.8,7.5-7.6
	V5.4h2.8L145.2,20L145.2,20z"/>
<path class="st11" d="M168.7,27.4v2.7h-13.7V5.4h2.9v22L168.7,27.4L168.7,27.4z"/>
<path class="st11" d="M183.8,8.1v22H181v-22h-8.1V5.4h19v2.7H183.8L183.8,8.1z"/>
</svg>
