<svg id="Layer_1" data-name="Layer 1" xmlns="http://www.w3.org/2000/svg" viewBox="0 0 191.87 48.63"><defs><style>.cls-1{fill:#db0f4a;}.cls-2{fill:#c10a47;}.cls-3{fill:#da3444;}.cls-4{fill:#ad0e43;}.cls-5{fill:#810f9b;}.cls-6{fill:#c6317b;}.cls-7{fill:#b52984;}.cls-8{fill:#d33776;}.cls-9{fill:#6300aa;}.cls-10{fill:#a31f8c;}.cls-11{fill:#8c1499;}.cls-12{fill:#fff;}</style></defs><title>logo-inverted</title><circle class="cls-1" cx="24.32" cy="24.32" r="24.32"/><polygon class="cls-2" points="24.35 43.2 40.47 33.52 40.47 15.08 24.35 5.4 24.35 43.2"/><path class="cls-3" d="M287.26,194.18a24.28,24.28,0,0,0-7.74,13.62l7.74-4.65v-9Z" transform="translate(-279.09 -188.04)"/><path class="cls-4" d="M303.44,193.44l-7.2-4.33a24.28,24.28,0,0,0-9,5.06v9Z" transform="translate(-279.09 -188.04)"/><path class="cls-3" d="M310.62,189.13a24.44,24.44,0,0,0-14.39,0l7.2,4.33Z" transform="translate(-279.09 -188.04)"/><path class="cls-5" d="M327.29,207.77a24.28,24.28,0,0,0-7.73-13.59v8.94Z" transform="translate(-279.09 -188.04)"/><path class="cls-6" d="M319.56,203.12v-8.94a24.28,24.28,0,0,0-8.93-5.05l-7.18,4.31Z" transform="translate(-279.09 -188.04)"/><path class="cls-4" d="M296.21,235.59a24.45,24.45,0,0,0,14.45,0l-7.21-4.33Z" transform="translate(-279.09 -188.04)"/><path class="cls-7" d="M319.56,230.53a24.28,24.28,0,0,0,7.74-13.62l-7.74,4.65v9Z" transform="translate(-279.09 -188.04)"/><path class="cls-8" d="M303.44,231.25l7.21,4.33a24.28,24.28,0,0,0,8.9-5v-9Z" transform="translate(-279.09 -188.04)"/><path class="cls-9" d="M327.29,207.77l-7.73-4.64v18.44l7.74-4.65A24.23,24.23,0,0,0,327.29,207.77Z" transform="translate(-279.09 -188.04)"/><path class="cls-8" d="M287.26,203.16l-7.74,4.65a24.2,24.2,0,0,0,0,9.07l7.74,4.65V203.16Z" transform="translate(-279.09 -188.04)"/><path class="cls-10" d="M287.26,221.53v9a24.28,24.28,0,0,0,8.94,5.06l7.23-4.34Z" transform="translate(-279.09 -188.04)"/><path class="cls-11" d="M279.52,216.88a24.28,24.28,0,0,0,7.74,13.65v-9Z" transform="translate(-279.09 -188.04)"/><path class="cls-1" d="M303.44,193.44l-16.18,9.72v18.37l16.18,9.72m0-37.8,0,11.45h1.4v14.93h-1.4m0,11.42V219.82H302V204.89h1.4" transform="translate(-279.09 -188.04)"/><rect class="cls-12" x="21.15" y="16.41" width="6.35" height="15.82"/><rect class="cls-12" x="23.17" width="2.29" height="16.85"/><rect class="cls-12" x="23.17" y="31.78" width="2.29" height="16.85"/><path d="M348.93,233.59v-5.91h0.67v5.91h-0.67Z" transform="translate(-279.09 -188.04)"/><path d="M356.8,233.59l-3.54-4.74v4.74h-0.67v-5.91h0.7l3.54,4.75v-4.75h0.67v5.91H356.8Z" transform="translate(-279.09 -188.04)"/><path d="M364.69,233.59l-3.54-4.74v4.74h-0.67v-5.91h0.7l3.54,4.75v-4.75h0.67v5.91h-0.69Z" transform="translate(-279.09 -188.04)"/><path d="M374,230.64a3.09,3.09,0,1,1-3.09-3A3,3,0,0,1,374,230.64Zm-5.5,0a2.41,2.41,0,1,0,2.41-2.33A2.38,2.38,0,0,0,368.48,230.64Z" transform="translate(-279.09 -188.04)"/><path d="M377.87,233.59l-2.4-5.91h0.73l2,5.12,2-5.12H381l-2.41,5.91h-0.7Z" transform="translate(-279.09 -188.04)"/><path d="M383.24,232.1l-0.66,1.49h-0.72l2.65-5.91h0.7l2.64,5.91h-0.73l-0.66-1.49h-3.22Zm1.6-3.65-1.32,3h2.65Z" transform="translate(-279.09 -188.04)"/><path d="M391.21,228.33v5.26h-0.67v-5.26h-1.92v-0.65h4.53v0.65h-1.93Z" transform="translate(-279.09 -188.04)"/><path d="M395.31,233.59v-5.91H396v5.91h-0.67Z" transform="translate(-279.09 -188.04)"/><path d="M400.5,233.59l-2.4-5.91h0.73l2,5.12,2-5.12h0.71l-2.41,5.91h-0.7Z" transform="translate(-279.09 -188.04)"/><path d="M406.42,228.33v1.94h3v0.65h-3v2h3.44v0.64h-4.12v-5.91h4v0.65h-3.33Z" transform="translate(-279.09 -188.04)"/><path d="M415.91,233.59v-5.91h0.67v5.91h-0.67Z" transform="translate(-279.09 -188.04)"/><path d="M423.77,233.59l-3.54-4.74v4.74h-0.67v-5.91h0.7l3.54,4.75v-4.75h0.67v5.91h-0.69Z" transform="translate(-279.09 -188.04)"/><path d="M429,233.59l-2.4-5.91h0.73l2,5.12,2-5.12h0.71l-2.41,5.91H429Z" transform="translate(-279.09 -188.04)"/><path d="M434.91,228.33v1.94h3v0.65h-3v2h3.44v0.64h-4.12v-5.91h4v0.65h-3.33Z" transform="translate(-279.09 -188.04)"/><path d="M444.54,228.21l-0.29.63a3.05,3.05,0,0,0-1.63-.5c-0.76,0-1.26.29-1.26,0.78,0,1.52,3.33.73,3.32,2.87,0,1-.87,1.62-2.13,1.62a3.38,3.38,0,0,1-2.26-.9l0.3-.61a2.94,2.94,0,0,0,2,.83c0.85,0,1.38-.35,1.38-0.91,0-1.55-3.32-.73-3.32-2.84,0-.93.82-1.53,2-1.53A3.49,3.49,0,0,1,444.54,228.21Z" transform="translate(-279.09 -188.04)"/><path d="M449,228.33v5.26h-0.67v-5.26h-1.92v-0.65H451v0.65H449Z" transform="translate(-279.09 -188.04)"/><path d="M453.14,233.59v-5.91h0.67v5.91h-0.67Z" transform="translate(-279.09 -188.04)"/><path d="M461,233.59l-3.54-4.74v4.74h-0.67v-5.91h0.7l3.54,4.75v-4.75h0.67v5.91H461Z" transform="translate(-279.09 -188.04)"/><path d="M469.39,230.7v2.14a3.65,3.65,0,0,1-2.19.78,3,3,0,1,1,0-6,3.34,3.34,0,0,1,2.18.81L469,229a2.72,2.72,0,0,0-1.79-.68,2.34,2.34,0,1,0,0,4.68,2.82,2.82,0,0,0,1.55-.5V230.7h0.6Z" transform="translate(-279.09 -188.04)"/><path d="M358.17,218.15l-10-24.72h3l8.51,21.44,8.55-21.44h3l-10.1,24.72h-2.93Z" transform="translate(-279.09 -188.04)"/><path d="M378.64,211.89l-2.75,6.25h-3L384,193.42h2.93L398,218.15h-3.07l-2.75-6.25-1.2-2.72-5.58-12.54-5.51,12.54Z" transform="translate(-279.09 -188.04)"/><path d="M424.28,208c0,6.43-3.89,10.31-10.35,10.31S403.51,214.4,403.51,208V193.42h2.83V208c0,4.8,2.9,7.59,7.59,7.59s7.52-2.79,7.52-7.59V193.42h2.83V208Z" transform="translate(-279.09 -188.04)"/><path d="M447.82,215.46v2.68H434.15V193.42H437v22h10.84Z" transform="translate(-279.09 -188.04)"/><path d="M462.88,196.14v22h-2.83v-22H452v-2.72h19v2.72h-8.09Z" transform="translate(-279.09 -188.04)"/></svg>