<?xml version="1.0" encoding="UTF-8"?>
<svg width="398px" height="104px" viewBox="0 0 398 104" version="1.1" xmlns="http://www.w3.org/2000/svg" xmlns:xlink="http://www.w3.org/1999/xlink">
    <!-- Generator: Sketch 49.3 (51167) - http://www.bohemiancoding.com/sketch -->
    <title>logo copy</title>
    <desc>Created with Sketch.</desc>
    <defs>
        <polygon id="path-1" points="20.4353486 0.601518803 0.218156273 0.601518803 0.218156273 20.5953108 20.4353486 20.5953108 20.4353486 0.601518803"></polygon>
        <polygon id="path-3" points="32.9974841 26.7085011 32.9974841 0.628173994 0.01841929 0.628173994 0.01841929 26.7085011 32.9974841 26.7085011"></polygon>
    </defs>
    <g id="V2" stroke="none" stroke-width="1" fill="none" fill-rule="evenodd">
        <g id="1.-MD---Template-Name-Copy-3" transform="translate(-640.000000, -884.000000)">
            <g id="logo" transform="translate(625.000000, 874.000000)">
                <g id="Page-1" transform="translate(15.309091, 9.531250)">
                    <path d="M29.3327642,57.7273242 C29.7901017,57.2741859 30.3363909,57.0485053 30.9716318,57.0485053 C31.0767565,56.7348626 31.1297681,56.3856796 31.1297681,56.0027333 C31.1297681,54.3998678 30.4163575,52.9631531 28.9886379,51.690812 C27.5618169,50.4193594 25.6677747,49.7831888 23.3074101,49.7831888 C20.7709391,49.7831888 18.7897423,50.5233146 17.3611242,52.0044547 C15.9343031,53.4855948 15.2217911,55.2359523 15.2217911,57.2573043 C15.2217911,57.988545 15.3350023,58.7286708 15.5650188,59.4785702 C15.7941368,60.2266925 16.0493114,60.8726367 16.331441,61.41196 C16.6126721,61.9521719 17.0529381,62.596339 17.6522389,63.3462383 C18.2515397,64.0952492 18.7178622,64.6523427 19.0530034,65.0184073 C19.3872461,65.3844719 19.9425203,65.9593355 20.7179275,66.7429981 C21.4933347,67.5275493 21.9866123,68.0233358 22.1977602,68.2330233 C27.0954943,73.3543739 29.5439122,78.1274301 29.5439122,82.5530802 C29.5439122,86.4207484 28.1000195,89.7570898 25.2104373,92.5612158 C22.320855,95.3662304 18.6747341,96.7682934 14.2702775,96.7682934 C10.1829921,96.7682934 6.78216227,95.5403776 4.06958488,93.0836576 C1.35610899,90.6269375 0.000269550586,87.5873573 0.000269550586,83.9640283 C0.000269550586,81.0026367 0.933813076,78.5983385 2.80179863,76.7511337 C4.66888568,74.9048175 6.85224542,73.9816594 9.35457335,73.9816594 C12.5963684,73.9816594 15.2739042,75.3757259 17.3889778,78.1620818 L15.3799274,80.4624248 C13.7940715,78.3717693 11.8910444,77.3268859 9.67174454,77.3268859 C7.94482379,77.3268859 6.43983302,77.971053 5.15317823,79.2602757 C3.86742194,80.5494984 3.22319604,82.2038972 3.22319604,84.2252492 C3.22319604,86.9085384 4.28163134,89.1991078 6.39490793,91.0978459 C8.50908301,92.996584 11.1336072,93.9463972 14.2702775,93.9463972 C17.6881789,93.9463972 20.4798245,92.8135516 22.6470112,90.5496374 C24.8141979,88.2839462 25.8968927,85.670849 25.8968927,82.7094574 C25.8968927,79.0159364 23.7836162,75.0265429 19.555266,70.7412767 C19.4492427,70.636433 19.0530034,70.2366051 18.3665479,69.5391276 C17.6800924,68.8425387 17.256898,68.406282 17.0978631,68.2330233 C16.9379298,68.0579876 16.5596605,67.6581597 15.9621567,67.0299857 C15.3628559,66.4035887 14.965718,65.9415654 14.7716416,65.6456928 C14.5784637,65.3489317 14.2612925,64.8966819 13.8210265,64.2862781 C13.3807606,63.6767627 13.0815594,63.163206 12.9225246,62.7447195 C12.7643882,62.3271216 12.5694133,61.8304465 12.3411938,61.2546944 C12.1120758,60.6798308 11.953041,60.1049672 11.8649878,59.5309921 C11.7778331,58.9561284 11.7338065,58.3714913 11.7338065,57.779746 C11.7338065,54.9223096 12.7455197,52.466478 14.7716416,50.4104743 C16.7977635,48.3544706 19.5912061,47.3264688 23.1483753,47.3264688 C26.6031153,47.3264688 29.3327642,48.2940522 31.3418146,50.2283305 C33.3490679,52.1617203 34.3544916,54.3127942 34.3544916,56.6824407 C34.3544916,57.8668197 34.063377,58.9907802 33.4811477,60.0534338 C32.8998169,61.1160874 32.0624131,61.6474142 30.9716318,61.6474142 C30.3363909,61.6474142 29.7901017,61.4297301 29.3327642,60.994362 C28.8754267,60.5581054 28.6463087,60.009897 28.6463087,59.3479597 C28.6463087,58.7206743 28.8754267,58.1804624 29.3327642,57.7273242" id="Fill-1" fill="#94B5BA"></path>
                    <path d="M41.6511361,68.180246 C39.7481089,70.2007095 38.5665789,72.6058962 38.1092414,75.3922521 C42.7248459,75.5317476 46.2667406,74.8618138 48.7331284,73.3806737 C51.1995163,71.8995336 52.432261,70.2362497 52.432261,68.389045 C52.432261,67.4490053 52.0881347,66.6733392 51.4016792,66.0629354 C50.7143252,65.45342 49.6837435,65.1486623 48.309934,65.1486623 C45.773463,65.1486623 43.5523662,66.1597826 41.6511361,68.180246 M62.1037359,75.3407188 C60.3076306,79.1381949 57.981409,82.2568522 55.1277668,84.6958022 C52.2732261,87.1338636 48.9263064,88.3537828 45.0852105,88.3537828 C41.7742308,88.3537828 39.1407216,87.4306247 37.1846829,85.58342 C35.2286441,83.7379923 34.251074,81.1764285 34.251074,77.9013941 C34.251074,73.9288822 35.5898419,70.3224349 38.2682762,67.0829407 C40.945812,63.8416695 44.2927318,62.2219224 48.309934,62.2219224 C50.5642754,62.2219224 52.3352228,62.7621343 53.620979,63.8416695 C54.9076338,64.9229817 55.5509612,66.2637378 55.5509612,67.8666033 C55.5509612,70.4095085 54.0351884,72.6574296 51.0054399,74.6085895 C47.9747928,76.5597495 43.6053778,77.3434121 37.8971949,76.9604658 L37.8971949,77.6401732 C37.8971949,80.2532704 38.6285755,82.2826189 40.0913367,83.7282188 C41.5531994,85.1747071 43.5523662,85.8979513 46.0906342,85.8979513 C49.1203828,85.8979513 51.9030433,84.8432942 54.4395143,82.7357572 C56.9777823,80.6273316 59.0380473,77.9182757 60.6239032,74.6085895 C61.187264,74.6085895 61.6805415,74.8520403 62.1037359,75.3407188" id="Fill-3" fill="#94B5BA"></path>
                    <path d="M67.2858459,68.180246 C65.3828188,70.2007095 64.2030858,72.6058962 63.7439513,75.3922521 C68.3595558,75.5317476 71.9014505,74.8618138 74.3678383,73.3806737 C76.8342262,71.8995336 78.0669708,70.2362497 78.0669708,68.389045 C78.0669708,67.4490053 77.7246416,66.6733392 77.0372876,66.0629354 C76.3490351,65.45342 75.3202504,65.1486623 73.9446439,65.1486623 C71.4081729,65.1486623 69.1888731,66.1597826 67.2858459,68.180246 M87.7402428,75.3407188 C85.9423404,79.1381949 83.6179159,82.2568522 80.7624767,84.6958022 C77.909733,87.1338636 74.5610162,88.3537828 70.7217174,88.3537828 C67.4089407,88.3537828 64.7754315,87.4306247 62.8193928,85.58342 C60.865151,83.7379923 59.8866824,81.1764285 59.8866824,77.9013941 C59.8866824,73.9288822 61.2245518,70.3224349 63.9029861,67.0829407 C66.5814204,63.8416695 69.9283402,62.2219224 73.9446439,62.2219224 C76.1998838,62.2219224 77.9708311,62.7621343 79.2574859,63.8416695 C80.5432422,64.9229817 81.1856711,66.2637378 81.1856711,67.8666033 C81.1856711,70.4095085 79.6698983,72.6574296 76.6401497,74.6085895 C73.6104012,76.5597495 69.2418847,77.3434121 63.5337018,76.9604658 L63.5337018,77.6401732 C63.5337018,80.2532704 64.2650824,82.2826189 65.7269451,83.7282188 C67.1879092,85.1747071 69.1888731,85.8979513 71.7253441,85.8979513 C74.7550926,85.8979513 77.5395502,84.8432942 80.0760212,82.7357572 C82.6124922,80.6273316 84.6745542,77.9182757 86.2604101,74.6085895 C86.8237708,74.6085895 87.3170484,74.8520403 87.7402428,75.3407188" id="Fill-5" fill="#94B5BA"></path>
                    <g id="Group-9" transform="translate(108.718736, 0.286988)">
                        <mask id="mask-2" fill="white">
                            <use xlink:href="#path-1"></use>
                        </mask>
                        <g id="Clip-8"></g>
                        <path d="M10.1978174,0.601252251 C15.8988123,0.601252251 20.4353486,5.08643234 20.4353486,10.7266707 C20.4353486,16.1092422 15.8988123,20.5953108 10.1978174,20.5953108 C4.75379411,20.5953108 0.218156273,16.1092422 0.218156273,10.7266707 C0.218156273,5.08643234 4.75379411,0.601252251 10.1978174,0.601252251" id="Fill-7" fill="#94B5BA" mask="url(#mask-2)"></path>
                    </g>
                    <path d="M93.2517436,70.9952119 C97.5286129,70.9952119 101.02738,74.583889 101.02738,78.8131793 C101.02738,83.2992479 97.5286129,86.7599801 92.8635908,86.7599801 C90.9192326,86.7599801 90.2705142,85.9914221 89.3648242,85.9914221 C88.8454901,85.9914221 88.585823,86.5040903 88.585823,87.01587 C88.585823,88.2979846 92.6039237,93.5526112 102.066048,93.5526112 C110.101351,93.5526112 112.693529,87.01587 112.693529,76.2498385 L112.693529,42.2857945 C112.693529,36.3905548 111.007041,34.2119372 105.04548,34.2119372 L103.231405,34.2119372 L103.231405,33.0577675 C116.71163,33.0577675 125.135085,31.0079833 126.949161,29.2132005 L128.116315,29.2132005 L128.116315,75.4812805 C128.116315,85.2219756 123.192524,95.2185606 104.916096,95.2185606 C89.2336429,95.2185606 84.9567736,86.5040903 84.9567736,80.095294 C84.9567736,73.8144425 88.585823,70.9952119 93.2517436,70.9952119" id="Fill-10" fill="#94B5BA"></path>
                    <path d="M175.402586,73.3021298 L175.402586,61.8954852 C173.845482,61.382817 170.866049,60.7422039 166.200129,60.7422039 C155.9608,60.7422039 149.998341,67.1501118 149.998341,77.6602534 C149.998341,87.1441703 152.851085,93.4241332 160.886388,93.4241332 C167.237,93.4241332 175.402586,86.759447 175.402586,73.3021298 M193.157883,88.9389531 C195.749162,88.9389531 197.0457,85.6061658 197.0457,78.6855898 L198.212855,78.6855898 L198.212855,81.5048204 C198.212855,90.7328475 194.454421,95.218916 186.417321,95.218916 C180.068506,95.218916 175.402586,91.6302389 175.402586,82.1454335 L175.012636,81.8895437 C172.55074,90.9896258 166.200129,95.218916 155.181799,95.218916 C145.073652,95.218916 136.389631,88.6821748 136.389631,78.3008665 C136.389631,66.6383321 148.57152,59.8448125 166.847948,59.8448125 C170.217331,59.8448125 173.587612,60.4854256 175.402586,60.8701488 L175.402586,51.1294537 C175.402586,43.5673761 175.012636,32.8013445 161.014874,32.8013445 C153.237441,32.8013445 146.758343,36.006187 146.758343,38.3127495 C146.758343,39.082196 147.146496,39.3380858 147.795215,39.3380858 C151.812417,39.3380858 155.181799,42.6708731 155.181799,47.0281083 C155.181799,51.0015087 151.812417,54.3342961 147.795215,54.3342961 C143.388961,54.3342961 140.017782,51.0015087 140.017782,46.9001634 C140.017782,35.6214637 151.812417,31.7760082 165.292642,31.7760082 C182.270734,31.7760082 190.048167,39.082196 190.048167,52.7954031 L190.048167,82.4022119 C190.048167,87.5288935 191.344706,88.9389531 193.157883,88.9389531" id="Fill-12" fill="#94B5BA"></path>
                    <path d="M265.588281,54.3338518 L265.588281,84.7092186 C265.588281,90.6053468 265.588281,92.7839644 270.641456,92.7839644 L273.016197,92.7839644 L273.016197,93.9372456 L243.512088,93.9372456 L243.512088,92.7839644 L245.757445,92.7839644 C250.942699,92.7839644 250.942699,90.6053468 250.942699,84.7092186 L250.942699,52.0272893 C250.942699,35.621908 244.849059,32.9297337 238.37086,32.9297337 C229.554759,32.9297337 223.983148,40.3629779 223.983148,40.3629779 L223.983148,84.7092186 C223.983148,90.6053468 223.983148,92.7839644 229.037222,92.7839644 L231.413759,92.7839644 L231.413759,93.9372456 L201.906955,93.9372456 L201.906955,92.7839644 L204.152312,92.7839644 C209.337567,92.7839644 209.337567,90.6053468 209.337567,84.7092186 L209.337567,41.6450926 C209.337567,36.0057427 209.337567,34.2118484 202.856672,34.2118484 L200.263595,34.2118484 L200.263595,33.0576786 C209.856901,33.0576786 221.519456,31.7764525 222.426943,30.110503 L223.593198,30.110503 L223.593198,38.4411386 L223.983148,38.6970285 C223.983148,38.6970285 229.554759,31.7764525 240.183138,31.7764525 C264.940461,31.7764525 265.588281,46.5158844 265.588281,54.3338518" id="Fill-14" fill="#94B5BA"></path>
                    <path d="M319.216718,59.588745 C319.216718,41.6453591 314.940747,32.6741104 307.163314,32.6741104 C302.239523,32.6741104 293.037066,33.6985583 291.999297,59.588745 L319.216718,59.588745 Z M291.999297,60.7420262 C291.999297,79.3260252 294.462091,94.3213469 307.682648,94.3213469 C317.142975,94.3213469 329.586329,88.5540522 333.604429,78.044799 L334.771583,78.044799 C331.011353,88.041384 320.513256,95.2187383 306.515494,95.2187383 C289.667684,95.2187383 275.799307,83.6841488 275.799307,64.0739251 C275.799307,42.5427505 289.667684,31.7758305 306.515494,31.7758305 C322.457614,31.7758305 335.029454,42.7986404 335.419403,60.7420262 L291.999297,60.7420262 Z" id="Fill-16" fill="#94B5BA"></path>
                    <g id="Group-20" transform="translate(333.344223, 61.593926)" fill="#94B5BA">
                        <path d="M18.9096025,5.5150478 C17.7999526,4.34755045 16.3111348,3.76380177 14.4431493,3.76380177 C11.5895071,3.76380177 9.10604771,5.15786825 6.99097412,7.94511269 C4.87769753,10.7323571 3.82105924,13.7817109 3.82105924,17.0913971 C3.82105924,19.2522446 4.37543494,20.9155285 5.48598335,22.0830258 C6.59563326,23.2496347 8.06648095,23.8333833 9.89942493,23.8333833 C12.7881087,23.8333833 15.2886396,22.4393169 17.4037132,19.6520724 C19.5178883,16.864828 20.5745266,13.8163627 20.5745266,10.505788 C20.5745266,8.34582905 20.0192524,6.68165665 18.9096025,5.5150478 M11.088143,38.4146611 C12.5850473,36.9166394 13.8097054,34.6518367 14.761219,31.620253 L15.235628,30.0529278 C14.3559946,30.3665706 13.175363,30.7237501 11.6955303,31.1244665 C10.2156976,31.5242944 9.01709601,31.8645923 8.10152253,32.1426948 C7.18505054,32.4225743 6.24252199,32.7788653 5.27303839,33.215122 C4.30535179,33.6504901 3.59194124,34.1818169 3.13460375,34.8082139 C2.67546926,35.4363878 2.44545276,36.1676286 2.44545276,37.0037131 C2.44545276,38.049485 2.81563556,38.9202213 3.55600117,39.6168102 C4.29546827,40.3133992 5.24788034,40.6625822 6.41054186,40.6625822 C8.03054087,40.6625822 9.59123876,39.9126829 11.088143,38.4146611 M33.6809745,13.7470592 C31.9208092,17.4396916 29.8587472,20.4712753 27.4983826,22.8409217 C25.1371195,25.2096797 22.3364889,27.1261879 19.0946939,28.5895579 L18.3543283,30.9414342 C17.4746949,33.7979821 16.3371914,36.1418619 14.9463104,37.970408 C13.5545309,39.7998426 12.1888079,41.0366434 10.85004,41.6808105 C9.51037359,42.3258661 8.1365641,42.6483939 6.72771305,42.6483939 C4.860626,42.6483939 3.35383823,42.1259522 2.20914674,41.0801802 C1.06355676,40.0352967 0.491211016,38.6936521 0.491211016,37.0561349 C0.491211016,35.871756 0.808382204,34.834869 1.44182608,33.9463627 C2.07616845,33.0578563 3.00072696,32.3346122 4.2164001,31.7766302 C5.43297174,31.2195367 6.62168982,30.7495168 7.78435134,30.3665706 C8.94701286,29.9827358 10.3477774,29.5651378 11.9857465,29.1119996 C13.624614,28.6588614 14.9193553,28.258145 15.8708689,27.9098505 L17.6678728,22.2136363 C15.0595216,25.2096797 12.0297731,26.7077014 8.57683006,26.7077014 C6.04035906,26.7077014 4.01423716,25.9062687 2.49936287,24.3042917 C0.984488586,22.7005377 0.226152941,20.4366235 0.226152941,17.5089951 C0.226152941,14.7919427 0.817367223,12.1441937 1.99710028,9.56574828 C3.17683334,6.98641433 4.85074247,4.85311057 7.01882768,3.16228297 C9.18511588,1.47323239 11.5364955,0.628262844 14.0729665,0.628262844 C16.2581232,0.628262844 18.0551271,1.22978165 19.4648767,2.43104224 C20.8737277,3.63319134 21.7731282,5.33201549 22.1603825,7.5275147 L27.3393478,1.04674934 L27.656519,1.04674934 L19.7811494,26.2901034 C25.0319948,23.711658 29.1713932,19.2868963 32.2020403,13.0140414 C32.765401,13.0140414 33.2586786,13.2583807 33.6809745,13.7470592" id="Fill-18"></path>
                    </g>
                    <g id="Group-23" transform="translate(364.791792, 61.593926)">
                        <mask id="mask-4" fill="white">
                            <use xlink:href="#path-3"></use>
                        </mask>
                        <g id="Clip-22"></g>
                        <path d="M16.8779099,18.3458792 C17.3011043,17.9273927 17.8114534,17.7185937 18.4107542,17.7185937 C18.8339486,17.7185937 19.2032329,17.8234375 19.5204041,18.0322365 C20.7540473,15.8020855 21.3704196,13.5026311 21.3704196,11.1338731 C21.3704196,8.65938294 20.6920506,6.76064486 19.3353127,5.43677039 C17.9794733,4.11289592 16.244466,3.45095869 14.1293924,3.45095869 C11.2056671,3.45095869 8.6862676,4.75706303 6.57119401,7.37016022 C4.45791742,9.98325742 3.40127913,12.9277675 3.40127913,16.2028019 C3.40127913,18.6772921 4.0787496,20.5751417 5.43548754,21.8999047 C6.79222549,23.2237791 8.51016121,23.8857164 10.5892947,23.8857164 C12.8786777,23.8857164 14.9578112,23.0487434 16.8248983,21.3765744 C16.4376439,20.9243247 16.244466,20.4187646 16.244466,19.8616711 C16.244466,19.2690373 16.4547155,18.7634772 16.8779099,18.3458792 M32.9979333,13.7469703 C30.4605638,19.1126602 26.3031953,21.8643644 20.5240308,22.0038599 C17.7755133,25.1402873 14.4285936,26.7085011 10.4832715,26.7085011 C7.38164277,26.7085011 4.8622433,25.7755694 2.9250731,23.9114831 C0.98610589,22.0473967 0.01841929,19.5124881 0.01841929,16.3076457 C0.01841929,12.300482 1.39222877,8.68514963 4.14074623,5.46253708 C6.8883652,2.23992452 10.2891951,0.628173994 14.3414389,0.628173994 C17.4412706,0.628173994 19.9606701,1.56021716 21.8978403,3.4243035 C23.8368075,5.28838983 24.8053926,7.80552834 24.8053926,10.9766075 C24.8053926,14.2862937 23.8727475,17.3356475 22.0038635,20.1228919 C24.1189371,19.843901 25.9941107,19.07712 27.6329782,17.8234375 C29.2709473,16.5688665 30.5656886,14.9660011 31.5181006,13.0148411 C32.0814614,13.0148411 32.5747389,13.2582918 32.9979333,13.7469703" id="Fill-21" fill="#94B5BA" mask="url(#mask-4)"></path>
                    </g>
                </g>
            </g>
        </g>
    </g>
</svg>