<svg id="Layer_1" data-name="Layer 1" xmlns="http://www.w3.org/2000/svg" viewBox="0 0 176.94 48.59"><defs><style>.cls-1{fill:#fff;}.cls-2{fill:#da3444;}.cls-3{fill:#810f9b;}.cls-4{fill:#b52984;}.cls-5{fill:#6300aa;}.cls-6{fill:#d33776;}.cls-7{fill:#8c1499;}.cls-8{fill:#c6317b;}.cls-9{fill:#c10a47;}.cls-10{fill:#ad0e43;}.cls-11{fill:#db0f4a;}.cls-12{fill:#a31f8c;}</style></defs><title>logo</title><path class="cls-1" d="M200.46,237.16v-5.29h0.6v5.29h-0.6Z" transform="translate(-132.83 -193.07)"/><path class="cls-1" d="M207.5,237.16l-3.17-4.24v4.24h-0.6v-5.29h0.63l3.17,4.25v-4.25h0.6v5.29H207.5Z" transform="translate(-132.83 -193.07)"/><path class="cls-1" d="M214.55,237.16l-3.17-4.24v4.24h-0.6v-5.29h0.63l3.17,4.25v-4.25h0.6v5.29h-0.62Z" transform="translate(-132.83 -193.07)"/><path class="cls-1" d="M222.88,234.51a2.77,2.77,0,1,1-2.76-2.66A2.7,2.7,0,0,1,222.88,234.51Zm-4.92,0a2.15,2.15,0,1,0,2.16-2.08A2.13,2.13,0,0,0,218,234.51Z" transform="translate(-132.83 -193.07)"/><path class="cls-1" d="M226.36,237.16l-2.15-5.29h0.65l1.82,4.58,1.83-4.58h0.63L227,237.16h-0.63Z" transform="translate(-132.83 -193.07)"/><path class="cls-1" d="M231.16,235.82l-0.59,1.34h-0.64l2.37-5.29h0.63l2.36,5.29h-0.66L234,235.82h-2.88Zm1.43-3.26-1.18,2.68h2.37Z" transform="translate(-132.83 -193.07)"/><path class="cls-1" d="M238.29,232.45v4.71h-0.6v-4.71H236v-0.58H240v0.58h-1.73Z" transform="translate(-132.83 -193.07)"/><path class="cls-1" d="M242,237.16v-5.29h0.6v5.29H242Z" transform="translate(-132.83 -193.07)"/><path class="cls-1" d="M246.61,237.16l-2.15-5.29h0.65l1.82,4.58,1.83-4.58h0.63l-2.16,5.29h-0.63Z" transform="translate(-132.83 -193.07)"/><path class="cls-1" d="M251.9,232.45v1.74h2.67v0.58H251.9v1.81H255v0.57h-3.69v-5.29h3.59v0.58h-3Z" transform="translate(-132.83 -193.07)"/><path class="cls-1" d="M260.39,237.16v-5.29H261v5.29h-0.6Z" transform="translate(-132.83 -193.07)"/><path class="cls-1" d="M267.43,237.16l-3.17-4.24v4.24h-0.6v-5.29h0.63l3.17,4.25v-4.25H268v5.29h-0.62Z" transform="translate(-132.83 -193.07)"/><path class="cls-1" d="M272.1,237.16L270,231.87h0.65l1.82,4.58,1.83-4.58h0.63l-2.16,5.29H272.1Z" transform="translate(-132.83 -193.07)"/><path class="cls-1" d="M277.4,232.45v1.74h2.67v0.58H277.4v1.81h3.08v0.57h-3.69v-5.29h3.59v0.58h-3Z" transform="translate(-132.83 -193.07)"/><path class="cls-1" d="M286,232.34l-0.26.57a2.73,2.73,0,0,0-1.46-.45c-0.68,0-1.13.26-1.13,0.7,0,1.36,3,.65,3,2.57,0,0.88-.78,1.45-1.91,1.45a3,3,0,0,1-2-.81l0.27-.54a2.63,2.63,0,0,0,1.76.75,1,1,0,0,0,1.24-.82c0-1.39-3-.65-3-2.55,0-.83.73-1.37,1.83-1.37A3.13,3.13,0,0,1,286,232.34Z" transform="translate(-132.83 -193.07)"/><path class="cls-1" d="M290,232.45v4.71h-0.6v-4.71h-1.72v-0.58h4.06v0.58H290Z" transform="translate(-132.83 -193.07)"/><path class="cls-1" d="M293.7,237.16v-5.29h0.6v5.29h-0.6Z" transform="translate(-132.83 -193.07)"/><path class="cls-1" d="M300.74,237.16l-3.17-4.24v4.24H297v-5.29h0.63l3.17,4.25v-4.25h0.6v5.29h-0.62Z" transform="translate(-132.83 -193.07)"/><path class="cls-1" d="M308.25,234.57v1.92a3.26,3.26,0,0,1-2,.69,2.67,2.67,0,1,1,0-5.33,3,3,0,0,1,1.95.73l-0.35.45a2.43,2.43,0,0,0-1.6-.61,2.1,2.1,0,1,0,0,4.19,2.53,2.53,0,0,0,1.39-.45v-1.59h0.54Z" transform="translate(-132.83 -193.07)"/><path class="cls-1" d="M208.83,223.33l-9-22.12h2.72l7.62,19.19,7.65-19.19h2.65l-9,22.12h-2.62Z" transform="translate(-132.83 -193.07)"/><path class="cls-1" d="M227.14,217.74l-2.47,5.59H222l9.92-22.12h2.62l9.89,22.12h-2.75l-2.47-5.59-1.07-2.43-5-11.22-4.93,11.22Z" transform="translate(-132.83 -193.07)"/><path class="cls-1" d="M268,214.23c0,5.75-3.48,9.23-9.26,9.23s-9.32-3.48-9.32-9.23v-13h2.53v13c0,4.3,2.59,6.8,6.8,6.8s6.73-2.5,6.73-6.8v-13H268v13Z" transform="translate(-132.83 -193.07)"/><path class="cls-1" d="M289.05,220.93v2.4H276.82V201.21h2.53v19.72h9.7Z" transform="translate(-132.83 -193.07)"/><path class="cls-1" d="M302.53,203.64v19.69H300V203.64h-7.21v-2.43h17v2.43h-7.24Z" transform="translate(-132.83 -193.07)"/><path class="cls-2" d="M141,199.16a24.28,24.28,0,0,0-7.74,13.62l7.74-4.65v-9Z" transform="translate(-132.83 -193.07)"/><path class="cls-3" d="M181,212.75a24.28,24.28,0,0,0-7.73-13.59v8.94Z" transform="translate(-132.83 -193.07)"/><path class="cls-4" d="M173.29,235.52A24.28,24.28,0,0,0,181,221.9l-7.74,4.65v9Z" transform="translate(-132.83 -193.07)"/><path class="cls-5" d="M181,212.75l-7.73-4.64v18.44L181,221.9A24.23,24.23,0,0,0,181,212.75Z" transform="translate(-132.83 -193.07)"/><path class="cls-6" d="M141,208.14l-7.74,4.65a24.2,24.2,0,0,0,0,9.07l7.74,4.65V208.14Z" transform="translate(-132.83 -193.07)"/><path class="cls-7" d="M133.26,221.86A24.28,24.28,0,0,0,141,235.52v-9Z" transform="translate(-132.83 -193.07)"/><path class="cls-2" d="M156,193.07a24.28,24.28,0,0,0-6,1l6,3.62v-4.65Z" transform="translate(-132.83 -193.07)"/><path class="cls-2" d="M158.29,193.07v4.69l6.07-3.64A24.29,24.29,0,0,0,158.29,193.07Z" transform="translate(-132.83 -193.07)"/><path class="cls-8" d="M164.36,194.11l-6.07,3.64v1.34l15,9v-8.94A24.28,24.28,0,0,0,164.36,194.11Z" transform="translate(-132.83 -193.07)"/><polygon class="cls-9" points="25.46 6.03 25.46 16.37 27.5 16.37 27.5 32.19 25.46 32.19 25.46 42.49 40.47 33.48 40.47 15.04 25.46 6.03"/><path class="cls-10" d="M158.29,236.9v4.72a24.27,24.27,0,0,0,6.1-1.05Z" transform="translate(-132.83 -193.07)"/><polygon class="cls-10" points="24.32 48.59 24.32 48.59 24.32 48.59 24.32 48.59"/><path class="cls-10" d="M156,236.93l-6.06,3.64a24.28,24.28,0,0,0,6.06,1v-4.68Z" transform="translate(-132.83 -193.07)"/><polygon class="cls-11" points="23.17 32.19 21.15 32.19 21.15 16.37 23.17 16.37 23.17 6.07 8.17 15.07 8.17 33.45 23.17 42.46 23.17 32.19"/><path class="cls-10" d="M156,197.72l-6-3.62a24.28,24.28,0,0,0-9,5.06v9l15-9v-1.41Z" transform="translate(-132.83 -193.07)"/><path class="cls-12" d="M156,235.52l-15-9v9a24.28,24.28,0,0,0,8.94,5.06l6.06-3.64v-1.41Z" transform="translate(-132.83 -193.07)"/><path class="cls-6" d="M158.29,235.56v1.34l6.1,3.66a24.28,24.28,0,0,0,8.9-5v-9Z" transform="translate(-132.83 -193.07)"/></svg>