<?xml version="1.0" encoding="utf-8"?>
<!-- Generator: Adobe Illustrator 22.0.1, SVG Export Plug-In . SVG Version: 6.00 Build 0)  -->
<svg version="1.1" id="Layer_1" xmlns="http://www.w3.org/2000/svg" xmlns:xlink="http://www.w3.org/1999/xlink" x="0px" y="0px"
	 viewBox="0 0 174 43" style="enable-background:new 0 0 174 43;" xml:space="preserve">
<style type="text/css">
	.st0{fill:#DAE5E7;}
	.st1{filter:url(#Adobe_OpacityMaskFilter);}
	.st2{fill:#FFFFFF;}
	.st3{mask:url(#mask-2_1_);fill:#DAE5E7;}
	.st4{fill:#CBDBDD;}
	.st5{fill:#94B5BA;}
	.st6{filter:url(#Adobe_OpacityMaskFilter_1_);}
	.st7{mask:url(#mask-4_1_);fill:#94B5BA;}
</style>
<title>Logo_horizontal</title>
<desc>Created with Sketch.</desc>
<g id="A">
	<g id="_x33__x5F_Form-Elements" transform="translate(-45.000000, -994.000000)">
		<g id="Group-25" transform="translate(0.000000, 954.000000)">
			<g id="Logo_horizontal" transform="translate(45.000000, 40.000000)">
				<path id="Fill-1" class="st0" d="M40.4,13.5c-1.8,0.8-3.4,1.5-5.2,2.3c-0.3,0-0.4-0.4-0.6-0.6c0-0.2-0.2-0.4-0.1-0.5
					c1.6-1,3.4-2.1,5-2.9l0.1,0.1c0.2,0.4,0.5,1,0.7,1.5L40.4,13.5z"/>
				<g id="Group-5" transform="translate(19.724696, 0.668333)">
					<g id="Clip-4">
					</g>
					<defs>
						<filter id="Adobe_OpacityMaskFilter" filterUnits="userSpaceOnUse" x="0.5" y="0" width="1.9" height="6">
							<feColorMatrix  type="matrix" values="1 0 0 0 0  0 1 0 0 0  0 0 1 0 0  0 0 0 1 0"/>
						</filter>
					</defs>
					<mask maskUnits="userSpaceOnUse" x="0.5" y="0" width="1.9" height="6" id="mask-2_1_">
						<g class="st1">
							<polygon id="path-1_1_" class="st2" points="2.3,0 0.5,0 0.5,6.1 2.3,6.1 							"/>
						</g>
					</mask>
					<path id="Fill-3" class="st3" d="M2.3,0.2c-0.1,2-0.1,3.7-0.2,5.6C2,6.1,1.6,6,1.4,6.1C1.2,6,1,6.1,0.9,5.9
						C0.6,4,0.5,2,0.5,0.2l0.1-0.1c0.5,0,1.1,0,1.6,0L2.3,0.2z"/>
				</g>
				<path id="Fill-6" class="st0" d="M19.1,0.9c0.2,2,0.4,3.7,0.6,5.6c-0.1,0.3-0.5,0.2-0.7,0.4c-0.2,0-0.4,0.1-0.5-0.1
					C18,5,17.6,2.9,17.2,1.2l0.1-0.1c0.5-0.1,1.1-0.2,1.6-0.2L19.1,0.9z"/>
				<path id="Fill-8" class="st0" d="M16.2,1.4c0.4,1.9,0.9,3.6,1.4,5.5c0,0.3-0.4,0.3-0.6,0.4c-0.2,0-0.4,0.1-0.5,0
					c-0.7-1.7-1.4-3.7-2-5.4l0.1-0.1c0.5-0.2,1.1-0.4,1.6-0.5L16.2,1.4z"/>
				<path id="Fill-10" class="st0" d="M13.4,2.3c0.7,1.8,1.4,3.4,2.1,5.2c0,0.3-0.4,0.4-0.6,0.5c-0.2,0-0.4,0.2-0.5,0.1
					c-1-1.6-1.9-3.4-2.7-5.1l0.1-0.1c0.4-0.2,1-0.5,1.5-0.7L13.4,2.3z"/>
				<path id="Fill-12" class="st0" d="M10.8,3.5c0.9,1.7,1.9,3.2,2.8,4.9c0,0.3-0.3,0.4-0.5,0.6c-0.2,0-0.3,0.2-0.5,0.1
					C11.4,7.7,10.2,6,9.2,4.5l0-0.1c0.4-0.3,0.9-0.6,1.4-0.9L10.8,3.5z"/>
				<path id="Fill-14" class="st0" d="M8.3,5.1c1.2,1.6,2.3,2.9,3.5,4.5c0.1,0.3-0.3,0.5-0.4,0.7c-0.2,0.1-0.3,0.3-0.5,0.2
					c-1.4-1.3-2.8-2.8-4-4.1l0-0.1c0.3-0.3,0.8-0.8,1.2-1.1H8.3z"/>
				<path id="Fill-16" class="st0" d="M6.1,7.1c1.4,1.4,2.7,2.5,4.1,3.9c0.1,0.2-0.2,0.5-0.3,0.7C9.7,11.8,9.6,12,9.4,12
					c-1.5-1.1-3.2-2.4-4.6-3.5l0-0.1C5.2,7.9,5.6,7.4,6,7.1L6.1,7.1z"/>
				<path id="Fill-18" class="st0" d="M4.2,9.3c1.6,1.2,3,2.1,4.6,3.3c0.2,0.2-0.1,0.5-0.2,0.8c-0.1,0.1-0.2,0.3-0.4,0.3
					c-1.7-0.8-3.5-1.9-5-2.8l0-0.1c0.2-0.4,0.6-1,0.9-1.4L4.2,9.3z"/>
				<path id="Fill-20" class="st0" d="M2.7,11.8c1.7,1,3.3,1.7,5,2.7c0.2,0.2-0.1,0.5-0.1,0.8c-0.1,0.1-0.2,0.4-0.4,0.4
					c-1.8-0.6-3.7-1.4-5.4-2.1l0-0.1c0.2-0.4,0.5-1,0.7-1.5L2.7,11.8z"/>
				<path id="Fill-22" class="st0" d="M1.4,14.4c1.8,0.7,3.5,1.2,5.3,1.9c0.2,0.2,0,0.5,0,0.8c-0.1,0.1-0.1,0.4-0.3,0.4
					c-1.8-0.3-3.9-0.9-5.6-1.4l-0.1-0.1c0.1-0.5,0.3-1.1,0.5-1.6L1.4,14.4z"/>
				<path id="Fill-24" class="st0" d="M0.6,17.2c1.9,0.5,3.6,0.7,5.5,1.2c0.2,0.1,0.1,0.5,0.1,0.8c-0.1,0.2-0.1,0.4-0.2,0.5
					c-1.9-0.1-3.9-0.3-5.7-0.6L0.2,19c0-0.5,0.2-1.1,0.3-1.6L0.6,17.2z"/>
				<path id="Fill-26" class="st0" d="M0.2,20.2c2,0.2,3.7,0.2,5.6,0.4C6.1,20.7,6,21.1,6,21.3c-0.1,0.2,0,0.4-0.2,0.5
					C4,22,1.9,22,0.1,22L0,21.9c0-0.5,0-1.1,0.1-1.6L0.2,20.2z"/>
				<path id="Fill-28" class="st0" d="M0.1,23.1c2-0.1,3.7-0.3,5.6-0.4C6,22.8,6,23.2,6.1,23.4c0,0.2,0,0.4-0.1,0.5
					c-1.8,0.4-3.9,0.8-5.7,1l-0.1-0.1c-0.1-0.5-0.2-1.1-0.2-1.6L0.1,23.1z"/>
				<path id="Fill-30" class="st0" d="M0.5,26c1.9-0.4,3.6-0.8,5.5-1.2c0.3,0,0.3,0.4,0.4,0.7c0,0.2,0.1,0.4,0,0.5
					c-1.7,0.7-3.7,1.3-5.5,1.8l-0.1-0.1c-0.2-0.5-0.3-1.1-0.4-1.6L0.5,26z"/>
				<path id="Fill-32" class="st0" d="M1.3,28.9c1.9-0.6,3.4-1.3,5.3-1.9c0.3,0,0.3,0.4,0.5,0.6c0,0.2,0.2,0.4,0,0.5
					C5.5,29,3.6,29.9,2,30.6l-0.1-0.1c-0.2-0.4-0.5-1-0.6-1.5L1.3,28.9z"/>
				<path id="Fill-34" class="st0" d="M2.5,31.5c1.8-0.9,3.2-1.8,5-2.6c0.3,0,0.4,0.4,0.6,0.5c0,0.2,0.2,0.3,0.1,0.5
					c-1.5,1.1-3.2,2.3-4.8,3.3l-0.1,0c-0.3-0.4-0.6-0.9-0.8-1.4L2.5,31.5z"/>
				<path id="Fill-36" class="st0" d="M4,34c1.6-1.1,3-2.2,4.6-3.3C8.8,30.7,9,31,9.2,31.2c0.1,0.2,0.2,0.3,0.2,0.5
					c-1.3,1.3-2.9,2.7-4.3,3.9l-0.1,0c-0.3-0.4-0.7-0.9-1-1.3L4,34z"/>
				<path id="Fill-38" class="st0" d="M5.8,36.3c1.4-1.3,2.6-2.6,4.1-3.9c0.2-0.1,0.5,0.2,0.7,0.3c0.1,0.2,0.3,0.3,0.2,0.5
					c-1.1,1.5-2.5,3.1-3.7,4.4l-0.1,0c-0.4-0.3-0.8-0.7-1.2-1.1L5.8,36.3z"/>
				<path id="Fill-40" class="st0" d="M8,38.3c1.2-1.5,2.2-2.9,3.5-4.4c0.2-0.1,0.5,0.2,0.8,0.2c0.1,0.1,0.3,0.2,0.3,0.4
					c-0.9,1.7-2,3.4-3,4.9l-0.1,0c-0.4-0.3-0.9-0.6-1.3-1L8,38.3z"/>
				<path id="Fill-42" class="st0" d="M10.4,40c1-1.7,1.8-3.2,2.8-4.9c0.2-0.2,0.5,0.1,0.8,0.1c0.1,0.1,0.4,0.2,0.4,0.4
					c-0.7,1.8-1.5,3.7-2.3,5.3l-0.1,0c-0.4-0.2-1-0.5-1.4-0.8L10.4,40z"/>
				<path id="Fill-44" class="st0" d="M13,41.3c0.8-1.8,1.3-3.4,2.1-5.2c0.2-0.2,0.5,0,0.8,0c0.1,0.1,0.4,0.1,0.4,0.3
					c-0.4,1.8-1,3.8-1.6,5.6l-0.1,0c-0.5-0.1-1.1-0.3-1.5-0.6L13,41.3z"/>
				<path id="Fill-46" class="st0" d="M15.8,42.2c0.5-1.9,0.9-3.6,1.4-5.5c0.2-0.2,0.5-0.1,0.8-0.1c0.2,0.1,0.4,0.1,0.4,0.3
					c-0.1,1.9-0.5,3.9-0.8,5.7l-0.1,0.1c-0.5-0.1-1.1-0.2-1.6-0.3L15.8,42.2z"/>
				<path id="Fill-48" class="st0" d="M18.7,42.7c0.2-2,0.3-3.7,0.6-5.6c0.1-0.2,0.5-0.1,0.8-0.2c0.2,0.1,0.4,0,0.5,0.2
					c0.1,1.9,0.1,4,0,5.8L20.4,43c-0.5,0-1.1,0-1.6-0.1L18.7,42.7z"/>
				<g id="Group-52" transform="translate(21.133603, 36.619152)">
					<path id="Fill-50" class="st0" d="M0.5,6.2c0-2-0.2-3.7-0.2-5.6c0.1-0.3,0.5-0.2,0.7-0.3c0.2,0,0.4,0,0.5,0.1
						c0.4,1.8,0.6,3.9,0.8,5.7L2.3,6.2C1.8,6.3,1.2,6.3,0.7,6.3L0.5,6.2z"/>
				</g>
				<path id="Fill-53" class="st0" d="M24.6,42.6c-0.3-1.9-0.7-3.6-1-5.6c0-0.3,0.5-0.3,0.7-0.4c0.2,0,0.4-0.1,0.5,0.1
					c0.6,1.8,1.2,3.8,1.6,5.5l-0.1,0.1c-0.5,0.1-1.1,0.3-1.6,0.3L24.6,42.6z"/>
				<path id="Fill-55" class="st0" d="M27.4,41.9c-0.6-1.9-1.2-3.5-1.7-5.4c0-0.3,0.4-0.3,0.6-0.5c0.2,0,0.4-0.1,0.5,0
					c0.9,1.7,1.7,3.6,2.4,5.2l-0.1,0.1c-0.4,0.2-1,0.4-1.5,0.6L27.4,41.9z"/>
				<path id="Fill-57" class="st0" d="M30.2,40.8c-0.8-1.8-1.6-3.3-2.5-5.1c0-0.3,0.4-0.4,0.5-0.6c0.2,0,0.4-0.2,0.5-0.1
					c1.1,1.5,2.2,3.3,3.1,4.9l-0.1,0.1c-0.4,0.3-1,0.6-1.4,0.8L30.2,40.8z"/>
				<path id="Fill-59" class="st0" d="M32.7,39.4c-1.1-1.7-2.1-3-3.2-4.7c-0.1-0.3,0.3-0.4,0.5-0.6c0.2-0.1,0.3-0.2,0.5-0.2
					c1.3,1.4,2.6,3,3.7,4.4l0,0.1c-0.4,0.3-0.9,0.7-1.3,1L32.7,39.4z"/>
				<path id="Fill-61" class="st0" d="M35,37.6c-1.3-1.5-2.5-2.7-3.8-4.2c-0.1-0.3,0.2-0.5,0.4-0.7c0.2-0.1,0.3-0.3,0.5-0.2
					c1.5,1.2,3,2.6,4.3,3.8l0,0.1c-0.3,0.4-0.8,0.8-1.2,1.1L35,37.6z"/>
				<path id="Fill-63" class="st0" d="M37.1,35.5c-1.5-1.3-2.8-2.3-4.3-3.6c-0.1-0.2,0.2-0.5,0.3-0.7c0.1-0.1,0.2-0.3,0.4-0.3
					c1.6,1,3.3,2.1,4.8,3.2l0,0.1c-0.3,0.4-0.7,0.9-1,1.3L37.1,35.5z"/>
				<path id="Fill-65" class="st0" d="M38.8,33.2c-1.6-1.1-3.1-1.9-4.8-3c-0.2-0.2,0.1-0.5,0.2-0.8c0.1-0.1,0.2-0.3,0.4-0.3
					c1.7,0.7,3.6,1.6,5.2,2.5l0,0.1c-0.2,0.4-0.5,1-0.8,1.4L38.8,33.2z"/>
				<path id="Fill-67" class="st0" d="M40.2,30.6c-1.8-0.8-3.4-1.5-5.2-2.3c-0.2-0.2,0-0.5,0-0.8c0.1-0.1,0.2-0.4,0.3-0.4
					c1.8,0.5,3.8,1.1,5.5,1.7l0,0.1c-0.1,0.5-0.4,1.1-0.6,1.5L40.2,30.6z"/>
				<path id="Fill-69" class="st0" d="M41.3,27.9c-1.9-0.6-3.6-1-5.4-1.6c-0.2-0.2,0-0.5-0.1-0.8c0.1-0.2,0.1-0.4,0.3-0.4
					c1.9,0.2,3.9,0.6,5.7,1l0.1,0.1c-0.1,0.5-0.2,1.1-0.4,1.6L41.3,27.9z"/>
				<path id="Fill-71" class="st0" d="M41.9,25c-1.9-0.3-3.7-0.5-5.6-0.8c-0.2-0.1-0.1-0.5-0.2-0.8c0.1-0.2,0-0.4,0.2-0.5
					c1.9,0,4,0,5.8,0.2l0.1,0.1c0,0.5-0.1,1.1-0.2,1.6L41.9,25z"/>
				<path id="Fill-73" class="st0" d="M42.1,22c-2,0-3.7,0-5.6,0c-0.3-0.1-0.2-0.5-0.3-0.7c0-0.2,0-0.4,0.1-0.5
					c1.9-0.3,3.9-0.5,5.7-0.6l0.1,0.1c0.1,0.5,0.1,1.1,0.1,1.6L42.1,22z"/>
				<path id="Fill-75" class="st0" d="M42,19.1c-2,0.2-3.6,0.6-5.6,0.8c-0.3-0.1-0.3-0.5-0.4-0.7c0-0.2-0.1-0.4,0.1-0.5
					c1.8-0.6,3.8-1.1,5.6-1.4l0.1,0.1c0.1,0.5,0.2,1.1,0.3,1.6L42,19.1z"/>
				<path id="Fill-77" class="st0" d="M41.4,16.2c-1.9,0.5-3.5,1.1-5.4,1.6c-0.3,0-0.3-0.4-0.5-0.6c0-0.2-0.1-0.4,0-0.5
					c1.7-0.8,3.6-1.6,5.3-2.2l0.1,0.1c0.2,0.4,0.4,1.1,0.5,1.6L41.4,16.2z"/>
				<path id="Fill-79" class="st0" d="M39.1,10.9c-1.7,1-3.1,2-4.8,3c-0.3,0.1-0.4-0.3-0.6-0.5c-0.1-0.2-0.2-0.3-0.1-0.5
					c1.4-1.2,3.1-2.5,4.5-3.6l0.1,0c0.3,0.4,0.7,0.9,0.9,1.4L39.1,10.9z"/>
				<path id="Fill-81" class="st0" d="M37.4,8.5c-1.5,1.2-2.8,2.4-4.3,3.6c-0.3,0.1-0.5-0.3-0.7-0.4c-0.1-0.2-0.3-0.3-0.2-0.5
					c1.2-1.4,2.7-2.9,4-4.2l0.1,0c0.3,0.3,0.8,0.8,1.1,1.2L37.4,8.5z"/>
				<path id="Fill-83" class="st0" d="M35.4,6.3c-1.3,1.4-2.4,2.8-3.8,4.2c-0.2,0.1-0.5-0.2-0.7-0.3c-0.1-0.1-0.3-0.3-0.3-0.4
					c1-1.6,2.2-3.3,3.4-4.7h0.1c0.4,0.3,0.9,0.7,1.3,1L35.4,6.3z"/>
				<path id="Fill-85" class="st0" d="M33.1,4.5c-1.1,1.6-2,3.1-3.2,4.7c-0.2,0.2-0.5-0.1-0.8-0.2c-0.1-0.1-0.3-0.2-0.3-0.4
					c0.8-1.7,1.8-3.5,2.7-5.1l0.1,0C32,3.7,32.6,4,33,4.4L33.1,4.5z"/>
				<path id="Fill-87" class="st0" d="M30.5,3c-0.9,1.7-1.6,3.3-2.5,5.1C27.9,8.3,27.5,8,27.3,8c-0.1-0.1-0.4-0.2-0.4-0.3
					c0.5-1.8,1.3-3.8,1.9-5.4l0.1,0c0.5,0.2,1,0.4,1.5,0.7L30.5,3z"/>
				<path id="Fill-89" class="st0" d="M27.8,1.9c-0.6,1.9-1.1,3.5-1.7,5.4c-0.2,0.2-0.5,0-0.8,0c-0.1-0.1-0.4-0.1-0.4-0.3
					c0.3-1.9,0.7-3.9,1.2-5.6l0.1-0.1c0.5,0.1,1.1,0.3,1.6,0.4L27.8,1.9z"/>
				<path id="Fill-91" class="st0" d="M25,1.2c-0.4,1.9-0.6,3.6-1,5.6c-0.1,0.2-0.5,0.1-0.8,0.1c-0.2-0.1-0.4-0.1-0.5-0.2
					c0-1.9,0.2-4,0.4-5.8l0.1-0.1c0.5,0,1.1,0.1,1.6,0.2L25,1.2z"/>
				<path id="Fill-93" class="st4" d="M20.1,36c0.1-1.2,0.2-2.8,0.3-3.9c0.1-0.1,0.3-0.1,0.4-0.1c0.1,0,0.2,0,0.3,0.1
					c0.1,1.1,0.2,2.9,0.2,4l-0.1,0.1C20.9,36.1,20.5,36.1,20.1,36L20.1,36z"/>
				<path id="Fill-95" class="st4" d="M22.1,36c-0.1-1.2-0.2-2.8-0.3-3.9c0-0.2,0.3-0.1,0.4-0.2c0.1,0,0.2,0,0.3,0.1
					c0.3,1.1,0.6,2.8,0.7,3.9l-0.1,0.1C22.9,36,22.5,36,22.1,36L22.1,36z"/>
				<path id="Fill-97" class="st4" d="M32.8,14c-1,0.7-2.3,1.6-3.2,2.2c-0.2,0-0.3-0.2-0.4-0.3c0-0.1-0.1-0.2-0.1-0.3
					c0.8-0.8,2.2-1.9,3-2.6l0.1,0c0.2,0.2,0.4,0.5,0.6,0.8L32.8,14z"/>
				<path id="Fill-99" class="st4" d="M19.2,7.9c0.1,1.2,0.4,2.7,0.6,3.9c0,0.2-0.3,0.1-0.4,0.2c-0.1,0-0.2,0-0.3,0
					c-0.3-1-0.8-2.8-1-3.9l0.1-0.1C18.4,8,18.8,7.9,19.2,7.9L19.2,7.9z"/>
				<path id="Fill-101" class="st4" d="M17.2,8.3c0.3,1.2,0.8,2.7,1.1,3.8c0,0.2-0.2,0.2-0.4,0.3c-0.1,0-0.2,0.1-0.3,0
					c-0.5-1-1.1-2.6-1.5-3.7l0-0.1C16.5,8.5,16.8,8.4,17.2,8.3L17.2,8.3z"/>
				<path id="Fill-103" class="st4" d="M15.4,9c0.5,1.1,1.2,2.5,1.6,3.6c0,0.2-0.2,0.2-0.3,0.3c-0.1,0-0.2,0.1-0.3,0
					c-0.6-0.9-1.5-2.5-2-3.4l0-0.1C14.6,9.3,15,9.1,15.3,9L15.4,9z"/>
				<path id="Fill-105" class="st4" d="M13.7,9.9c0.6,1,1.5,2.3,2.1,3.3c0,0.2-0.2,0.2-0.3,0.4c-0.1,0-0.2,0.1-0.3,0.1
					c-0.7-0.8-1.8-2.2-2.5-3.1l0-0.1c0.2-0.2,0.6-0.4,0.8-0.6L13.7,9.9z"/>
				<path id="Fill-107" class="st4" d="M12.1,11.1c0.8,0.9,1.8,2.1,2.5,3c0.1,0.1-0.1,0.3-0.2,0.4c-0.1,0-0.2,0.2-0.3,0.1
					c-0.8-0.7-2.1-2-2.9-2.7l0-0.1c0.2-0.2,0.5-0.5,0.7-0.7L12.1,11.1z"/>
				<path id="Fill-109" class="st4" d="M10.7,12.4c0.9,0.8,2.1,1.8,2.9,2.6c0.1,0.1-0.1,0.3-0.2,0.4c-0.1,0.1-0.1,0.2-0.3,0.2
					c-0.9-0.6-2.4-1.6-3.2-2.3l0-0.1c0.2-0.2,0.4-0.5,0.6-0.8L10.7,12.4z"/>
				<path id="Fill-111" class="st4" d="M9.5,14c1,0.7,2.3,1.5,3.3,2.2c0.1,0.1-0.1,0.3-0.1,0.4c-0.1,0.1-0.1,0.2-0.2,0.2
					c-1-0.4-2.6-1.3-3.5-1.8l0-0.1C9,14.6,9.2,14.3,9.4,14L9.5,14z"/>
				<path id="Fill-113" class="st4" d="M8.5,15.7c1.1,0.5,2.5,1.2,3.5,1.7c0.1,0.1,0,0.3,0,0.5c-0.1,0.1-0.1,0.2-0.2,0.2
					c-1-0.3-2.7-0.9-3.8-1.3l0-0.1C8.1,16.4,8.2,16,8.5,15.7L8.5,15.7z"/>
				<path id="Fill-115" class="st4" d="M7.7,17.5c1.1,0.4,2.7,0.8,3.7,1.2c0.1,0.1,0,0.3,0,0.5c-0.1,0.1-0.1,0.2-0.2,0.2
					c-1.1-0.2-2.8-0.5-3.9-0.8l0-0.1C7.4,18.2,7.5,17.9,7.7,17.5L7.7,17.5z"/>
				<path id="Fill-117" class="st4" d="M7.3,19.4c1.2,0.2,2.7,0.5,3.9,0.7c0.1,0.1,0.1,0.3,0.1,0.4c0,0.1,0,0.2-0.1,0.3
					c-1.1,0-2.9-0.1-4-0.2l0-0.1C7.1,20.2,7.1,19.8,7.3,19.4L7.3,19.4z"/>
				<path id="Fill-119" class="st4" d="M7.1,21.4c1.2,0.1,2.8,0.1,3.9,0.1c0.1,0.1,0.1,0.3,0.1,0.4c0,0.1,0,0.2-0.1,0.3
					c-1.1,0.1-2.9,0.3-4,0.3L7,22.5C7,22.2,7,21.8,7.1,21.4L7.1,21.4z"/>
				<path id="Fill-121" class="st4" d="M7.1,23.4c1.2-0.1,2.8-0.3,3.9-0.4c0.2,0,0.1,0.3,0.2,0.4c0,0.1,0,0.2-0.1,0.3
					c-1,0.3-2.8,0.7-3.9,0.9l-0.1-0.1C7.2,24.2,7.1,23.8,7.1,23.4L7.1,23.4z"/>
				<path id="Fill-123" class="st4" d="M7.5,25.3c1.2-0.3,2.7-0.7,3.8-1c0.2,0,0.2,0.3,0.3,0.4c0,0.1,0.1,0.2,0,0.3
					c-1,0.4-2.7,1-3.7,1.4l-0.1,0C7.6,26.1,7.5,25.7,7.5,25.3L7.5,25.3z"/>
				<path id="Fill-125" class="st4" d="M8.1,27.2c1.1-0.4,2.6-1.1,3.6-1.5c0.2,0,0.2,0.2,0.3,0.3c0,0.1,0.1,0.2,0,0.3
					c-0.9,0.6-2.5,1.4-3.5,1.9l-0.1,0c-0.1-0.3-0.3-0.6-0.4-0.9L8.1,27.2z"/>
				<path id="Fill-127" class="st4" d="M8.9,28.9c1.1-0.6,2.4-1.4,3.4-2c0.2,0,0.2,0.2,0.4,0.3c0,0.1,0.1,0.2,0.1,0.3
					c-0.8,0.7-2.3,1.7-3.2,2.4l-0.1,0c-0.2-0.2-0.4-0.6-0.5-0.8L8.9,28.9z"/>
				<path id="Fill-129" class="st4" d="M10,30.6c1-0.7,2.2-1.7,3.1-2.4c0.1-0.1,0.3,0.2,0.4,0.2c0,0.1,0.2,0.2,0.1,0.3
					c-0.7,0.8-2,2-2.8,2.8l-0.1,0c-0.2-0.2-0.5-0.5-0.7-0.8L10,30.6z"/>
				<path id="Fill-131" class="st4" d="M11.3,32c0.9-0.9,1.9-2,2.7-2.8c0.1-0.1,0.3,0.1,0.4,0.2c0.1,0.1,0.2,0.2,0.2,0.3
					c-0.6,0.9-1.7,2.3-2.4,3.2l-0.1,0c-0.2-0.2-0.5-0.4-0.8-0.7L11.3,32z"/>
				<path id="Fill-133" class="st4" d="M12.8,33.3c0.7-1,1.6-2.3,2.3-3.2c0.1-0.1,0.3,0.1,0.4,0.1c0.1,0.1,0.2,0.1,0.2,0.2
					c-0.5,1-1.4,2.5-2,3.5l-0.1,0c-0.3-0.1-0.6-0.4-0.8-0.6L12.8,33.3z"/>
				<path id="Fill-135" class="st4" d="M14.5,34.3c0.6-1.1,1.3-2.5,1.8-3.5c0.1-0.1,0.3,0,0.5,0.1C16.8,31,17,31,17,31.1
					c-0.3,1-1,2.7-1.5,3.7l-0.1,0C15.2,34.8,14.8,34.6,14.5,34.3L14.5,34.3z"/>
				<path id="Fill-137" class="st4" d="M16.3,35.1c0.4-1.1,0.9-2.6,1.3-3.7c0.1-0.1,0.3,0,0.5,0c0.1,0.1,0.2,0.1,0.2,0.2
					c-0.2,1.1-0.6,2.8-0.9,3.9l-0.1,0C17,35.5,16.6,35.3,16.3,35.1L16.3,35.1z"/>
				<path id="Fill-139" class="st4" d="M18.2,35.7c0.3-1.2,0.6-2.7,0.8-3.8c0.1-0.1,0.3,0,0.5-0.1c0.1,0,0.2,0,0.3,0.1
					c0,1.1-0.2,2.9-0.4,4l-0.1,0C18.9,35.9,18.5,35.8,18.2,35.7L18.2,35.7z"/>
				<path id="Fill-141" class="st4" d="M24.1,35.7c-0.2-1.2-0.6-2.7-0.8-3.8c0-0.2,0.3-0.2,0.4-0.2c0.1,0,0.2-0.1,0.3,0
					c0.4,1,0.9,2.7,1.3,3.8l-0.1,0.1C24.9,35.6,24.5,35.7,24.1,35.7L24.1,35.7z"/>
				<path id="Fill-143" class="st4" d="M26,35.1c-0.4-1.1-1-2.6-1.3-3.7c0-0.2,0.2-0.2,0.3-0.3c0.1,0,0.2-0.1,0.3,0
					c0.5,0.9,1.3,2.6,1.8,3.6l0,0.1c-0.3,0.1-0.6,0.3-0.9,0.4L26,35.1z"/>
				<path id="Fill-145" class="st4" d="M27.7,34.3c-0.5-1.1-1.3-2.4-1.8-3.5c0-0.2,0.2-0.2,0.3-0.3c0.1,0,0.2-0.1,0.3-0.1
					c0.7,0.9,1.7,2.4,2.3,3.3l0,0.1c-0.2,0.2-0.6,0.4-0.9,0.5L27.7,34.3z"/>
				<path id="Fill-147" class="st4" d="M29.4,33.3c-0.7-1-1.7-2.2-2.3-3.2c0-0.2,0.2-0.3,0.2-0.4c0.1,0,0.2-0.1,0.3-0.1
					c0.8,0.8,2,2.1,2.7,2.9l0,0.1c-0.2,0.2-0.5,0.4-0.8,0.6L29.4,33.3z"/>
				<path id="Fill-149" class="st4" d="M30.9,32.1c-0.8-0.9-2-2-2.7-2.8c-0.1-0.1,0.1-0.3,0.2-0.4c0.1-0.1,0.2-0.2,0.3-0.1
					c0.9,0.6,2.2,1.8,3.1,2.5l0,0.1c-0.2,0.2-0.5,0.5-0.7,0.7L30.9,32.1z"/>
				<path id="Fill-151" class="st4" d="M32.2,30.6c-0.9-0.8-2.2-1.7-3.1-2.4c-0.1-0.1,0.1-0.3,0.1-0.4c0.1-0.1,0.1-0.2,0.2-0.2
					c1,0.5,2.5,1.5,3.4,2.1l0,0.1c-0.2,0.3-0.4,0.6-0.6,0.8L32.2,30.6z"/>
				<path id="Fill-153" class="st4" d="M33.3,29c-1-0.6-2.4-1.4-3.4-1.9c-0.1-0.1,0-0.3,0.1-0.5c0.1-0.1,0.1-0.2,0.2-0.2
					c1,0.4,2.7,1.1,3.7,1.6l0,0.1C33.8,28.3,33.6,28.7,33.3,29L33.3,29z"/>
				<path id="Fill-155" class="st4" d="M34.2,27.2c-1.1-0.5-2.6-1-3.6-1.5c-0.1-0.1,0-0.3,0-0.5c0.1-0.1,0.1-0.2,0.2-0.2
					c1.1,0.2,2.8,0.7,3.8,1.1l0,0.1C34.5,26.5,34.4,26.9,34.2,27.2L34.2,27.2z"/>
				<path id="Fill-157" class="st4" d="M34.8,25.3c-1.2-0.3-2.7-0.6-3.8-0.9c-0.1-0.1,0-0.3-0.1-0.5c0-0.1,0-0.2,0.1-0.3
					c1.1,0.1,2.9,0.3,3.9,0.5l0,0.1C35,24.6,35,25,34.8,25.3L34.8,25.3z"/>
				<path id="Fill-159" class="st4" d="M35.1,23.4c-1.2-0.1-2.8-0.3-3.9-0.4c-0.1-0.1-0.1-0.3-0.1-0.4c0-0.1,0-0.2,0.1-0.3
					c1.1-0.1,2.9-0.1,4,0l0.1,0.1C35.3,22.6,35.2,23,35.1,23.4L35.1,23.4z"/>
				<path id="Fill-161" class="st4" d="M35.2,21.4c-1.2,0-2.8,0.1-3.9,0.1c-0.2,0-0.1-0.3-0.2-0.4c0-0.1,0-0.2,0.1-0.3
					c1.1-0.2,2.8-0.5,3.9-0.6l0.1,0.1C35.2,20.6,35.3,21,35.2,21.4L35.2,21.4z"/>
				<path id="Fill-163" class="st4" d="M35,19.4c-1.2,0.2-2.7,0.5-3.9,0.7c-0.2,0-0.2-0.3-0.2-0.4c0-0.1,0-0.2,0-0.3
					c1-0.4,2.7-0.9,3.8-1.1l0.1,0.1C34.9,18.6,35,19,35,19.4L35,19.4z"/>
				<path id="Fill-165" class="st4" d="M34.5,17.5c-1.2,0.4-2.6,0.9-3.7,1.2c-0.2,0-0.2-0.2-0.3-0.4c0-0.1-0.1-0.2,0-0.3
					c1-0.5,2.6-1.2,3.6-1.6l0.1,0c0.1,0.3,0.3,0.6,0.4,0.9L34.5,17.5z"/>
				<path id="Fill-167" class="st4" d="M33.8,15.7c-1.1,0.5-2.5,1.2-3.5,1.7c-0.2,0-0.2-0.2-0.3-0.3c0-0.1-0.1-0.2-0.1-0.3
					c0.9-0.6,2.4-1.6,3.4-2.1l0.1,0c0.2,0.2,0.4,0.6,0.5,0.9L33.8,15.7z"/>
				<path id="Fill-169" class="st4" d="M31.6,12.5c-0.9,0.8-2,1.9-2.9,2.6c-0.1,0.1-0.3-0.1-0.4-0.2c0-0.1-0.2-0.2-0.1-0.3
					c0.7-0.9,1.9-2.2,2.6-3l0.1,0c0.2,0.2,0.5,0.5,0.7,0.7L31.6,12.5z"/>
				<path id="Fill-171" class="st4" d="M30.2,11.1c-0.8,0.9-1.8,2.1-2.5,3c-0.1,0.1-0.3-0.1-0.4-0.1c-0.1-0.1-0.2-0.1-0.2-0.2
					c0.5-0.9,1.6-2.4,2.2-3.3l0.1,0c0.2,0.2,0.6,0.4,0.8,0.6L30.2,11.1z"/>
				<path id="Fill-173" class="st4" d="M28.6,9.9c-0.7,1-1.4,2.4-2.1,3.3c-0.1,0.1-0.3-0.1-0.4-0.1c-0.1-0.1-0.2-0.1-0.2-0.2
					c0.4-1,1.2-2.6,1.7-3.6l0.1,0c0.3,0.1,0.6,0.3,0.9,0.5L28.6,9.9z"/>
				<path id="Fill-175" class="st4" d="M26.9,9c-0.5,1.1-1.1,2.6-1.6,3.6c-0.1,0.1-0.3,0-0.5,0c-0.1-0.1-0.2-0.1-0.2-0.2
					c0.3-1.1,0.8-2.8,1.2-3.8l0.1,0C26.2,8.6,26.6,8.8,26.9,9L26.9,9z"/>
				<path id="Fill-177" class="st4" d="M25,8.4c-0.4,1.2-0.7,2.7-1.1,3.8c-0.1,0.1-0.3,0-0.5,0c-0.1,0-0.2-0.1-0.3-0.2
					c0.1-1.1,0.4-2.8,0.7-3.9L24,8C24.3,8.1,24.7,8.2,25,8.4L25,8.4z"/>
				<path id="Fill-179" class="st4" d="M23.1,7.9c-0.2,1.2-0.4,2.8-0.5,3.9c-0.1,0.1-0.3,0.1-0.4,0.1c-0.1,0-0.2,0-0.3-0.1
					c0-1.1,0-2.9,0.1-4l0.1-0.1C22.4,7.8,22.7,7.8,23.1,7.9L23.1,7.9z"/>
				<path id="Fill-181" class="st4" d="M21.1,7.8c0,1.2,0,2.8,0,3.9c-0.1,0.1-0.3,0.1-0.4,0.2c-0.1,0-0.2,0-0.3-0.1
					c-0.2-1.1-0.4-2.9-0.4-4L20,7.8C20.3,7.8,20.7,7.7,21.1,7.8L21.1,7.8z"/>
				<path id="Fill-183" class="st5" d="M20.6,30.9c0.1-0.9,0.1-1.5,0.2-2.4c0.1-0.1,0.3-0.1,0.4-0.1c0.1,0,0.2,0,0.3,0.1
					c0.1,0.9,0.1,1.6,0.1,2.5l-0.1,0C21.3,30.9,21,30.9,20.6,30.9L20.6,30.9z"/>
				<path id="Fill-185" class="st5" d="M26.1,14.3c-0.5,0.8-0.8,1.2-1.3,2c-0.1,0.1-0.3-0.1-0.4-0.1c-0.1-0.1-0.2-0.1-0.2-0.2
					c0.4-0.8,0.7-1.5,1.1-2.2l0.1,0C25.5,13.9,25.8,14,26.1,14.3L26.1,14.3z"/>
				<path id="Fill-187" class="st5" d="M24.7,13.5c-0.4,0.8-0.6,1.4-1,2.2c-0.1,0.1-0.3,0-0.4,0c-0.1-0.1-0.2-0.1-0.2-0.2
					c0.2-0.9,0.4-1.6,0.7-2.4l0.1,0C24.1,13.2,24.4,13.3,24.7,13.5L24.7,13.5z"/>
				<path id="Fill-189" class="st5" d="M23.2,13c-0.2,0.9-0.3,1.4-0.6,2.4c-0.1,0.1-0.3,0-0.4,0c-0.1,0-0.2,0-0.2-0.1
					c0.1-0.9,0.2-1.6,0.3-2.5l0.1,0C22.6,12.8,22.9,12.9,23.2,13L23.2,13z"/>
				<path id="Fill-191" class="st5" d="M21.6,12.8c-0.1,0.9-0.1,1.5-0.2,2.4c-0.1,0.1-0.3,0.1-0.4,0.1c-0.1,0-0.2,0-0.3-0.1
					c-0.1-0.9-0.1-1.6-0.1-2.5l0.1,0C21,12.7,21.3,12.7,21.6,12.8L21.6,12.8z"/>
				<path id="Fill-193" class="st5" d="M20,12.9c0.1,0.9,0.2,1.5,0.3,2.4c0,0.1-0.2,0.1-0.4,0.2c-0.1,0-0.2,0-0.3,0
					c-0.3-0.9-0.4-1.6-0.6-2.4l0-0.1C19.4,12.9,19.7,12.8,20,12.9L20,12.9z"/>
				<path id="Fill-195" class="st5" d="M18.5,13.2c0.2,0.9,0.4,1.4,0.7,2.3c0,0.1-0.2,0.2-0.3,0.2c-0.1,0-0.2,0.1-0.3,0
					c-0.4-0.8-0.7-1.5-1-2.3l0-0.1C17.9,13.3,18.2,13.2,18.5,13.2L18.5,13.2z"/>
				<path id="Fill-197" class="st5" d="M17,13.8c0.4,0.8,0.7,1.3,1.1,2.2c0,0.1-0.2,0.2-0.3,0.3c-0.1,0-0.2,0.1-0.3,0.1
					c-0.5-0.7-0.9-1.3-1.4-2.1l0-0.1C16.4,14,16.7,13.9,17,13.8L17,13.8z"/>
				<path id="Fill-199" class="st5" d="M15.7,14.6c0.5,0.8,0.9,1.2,1.4,2c0,0.1-0.2,0.2-0.2,0.3c-0.1,0-0.2,0.1-0.2,0.1
					c-0.7-0.6-1.1-1.2-1.7-1.8l0-0.1C15.1,15,15.4,14.8,15.7,14.6L15.7,14.6z"/>
				<path id="Fill-201" class="st5" d="M14.5,15.7c0.7,0.7,1.1,1,1.7,1.7c0.1,0.1-0.1,0.3-0.2,0.4c-0.1,0.1-0.1,0.2-0.2,0.1
					c-0.8-0.5-1.3-0.9-2-1.5l0-0.1C14,16.1,14.3,15.9,14.5,15.7L14.5,15.7z"/>
				<path id="Fill-203" class="st5" d="M13.5,16.9c0.8,0.5,1.2,0.8,2,1.3c0.1,0.1-0.1,0.3-0.1,0.4c-0.1,0.1-0.1,0.2-0.2,0.2
					c-0.8-0.4-1.5-0.7-2.2-1.1l0-0.1C13.2,17.4,13.3,17.1,13.5,16.9L13.5,16.9z"/>
				<path id="Fill-205" class="st5" d="M12.8,18.3c0.8,0.4,1.4,0.6,2.2,1c0.1,0.1,0,0.3,0,0.4c-0.1,0.1-0.1,0.2-0.2,0.2
					c-0.9-0.2-1.6-0.4-2.4-0.7l0-0.1C12.5,18.9,12.6,18.6,12.8,18.3L12.8,18.3z"/>
				<path id="Fill-207" class="st5" d="M12.3,19.8c0.9,0.2,1.4,0.3,2.4,0.6c0.1,0.1,0,0.3,0,0.4c0,0.1,0,0.2-0.1,0.2
					c-0.9-0.1-1.6-0.2-2.5-0.3l0-0.1C12.1,20.4,12.2,20.1,12.3,19.8L12.3,19.8z"/>
				<path id="Fill-209" class="st5" d="M12.1,21.3c0.9,0.1,1.5,0.1,2.4,0.2c0.1,0.1,0.1,0.3,0.1,0.4c0,0.1,0,0.2-0.1,0.3
					c-0.9,0.1-1.6,0.1-2.5,0.1l0-0.1C12,22,12,21.7,12.1,21.3L12.1,21.3z"/>
				<path id="Fill-211" class="st5" d="M12.2,22.9c0.9-0.1,1.5-0.2,2.4-0.3c0.1,0,0.1,0.2,0.2,0.4c0,0.1,0,0.2,0,0.3
					c-0.9,0.3-1.6,0.4-2.4,0.6l-0.1,0C12.2,23.6,12.1,23.3,12.2,22.9L12.2,22.9z"/>
				<path id="Fill-213" class="st5" d="M12.5,24.5c0.9-0.2,1.4-0.4,2.3-0.7c0.1,0,0.2,0.2,0.2,0.3c0,0.1,0.1,0.2,0,0.3
					c-0.8,0.4-1.5,0.7-2.3,1l-0.1,0C12.6,25.1,12.5,24.8,12.5,24.5L12.5,24.5z"/>
				<path id="Fill-215" class="st5" d="M13.1,25.9c0.8-0.4,1.3-0.7,2.2-1.1c0.1,0,0.2,0.2,0.3,0.3c0,0.1,0.1,0.2,0.1,0.3
					c-0.7,0.5-1.3,0.9-2.1,1.4l-0.1,0C13.3,26.5,13.2,26.2,13.1,25.9L13.1,25.9z"/>
				<path id="Fill-217" class="st5" d="M13.9,27.3c0.8-0.5,1.2-0.9,2-1.4c0.1,0,0.2,0.2,0.3,0.2c0,0.1,0.1,0.2,0.1,0.2
					c-0.6,0.7-1.2,1.1-1.8,1.7l-0.1,0C14.2,27.8,14,27.6,13.9,27.3L13.9,27.3z"/>
				<path id="Fill-219" class="st5" d="M14.9,28.4c0.7-0.7,1-1.1,1.7-1.7c0.1-0.1,0.3,0.1,0.4,0.2c0.1,0.1,0.2,0.1,0.1,0.2
					c-0.5,0.8-0.9,1.3-1.5,2l-0.1,0C15.4,28.9,15.1,28.7,14.9,28.4L14.9,28.4z"/>
				<path id="Fill-221" class="st5" d="M16.2,29.4c0.5-0.8,0.8-1.2,1.3-2c0.1-0.1,0.3,0.1,0.4,0.1c0.1,0.1,0.2,0.1,0.2,0.2
					c-0.4,0.8-0.7,1.5-1.1,2.2l-0.1,0C16.7,29.8,16.4,29.6,16.2,29.4L16.2,29.4z"/>
				<path id="Fill-223" class="st5" d="M17.6,30.2c0.4-0.8,0.6-1.4,1-2.2c0.1-0.1,0.3,0,0.4,0c0.1,0.1,0.2,0.1,0.2,0.2
					c-0.2,0.9-0.4,1.6-0.7,2.4l-0.1,0C18.1,30.4,17.8,30.3,17.6,30.2L17.6,30.2z"/>
				<path id="Fill-225" class="st5" d="M19.1,30.6c0.2-0.9,0.3-1.4,0.6-2.4c0.1-0.1,0.3,0,0.4,0c0.1,0,0.2,0,0.2,0.1
					c-0.1,0.9-0.2,1.6-0.3,2.5l-0.1,0C19.7,30.8,19.4,30.8,19.1,30.6L19.1,30.6z"/>
				<path id="Fill-227" class="st5" d="M22.2,30.8c-0.1-0.9-0.2-1.5-0.3-2.4c0-0.1,0.2-0.1,0.4-0.2c0.1,0,0.2,0,0.3,0
					c0.3,0.9,0.4,1.6,0.6,2.4l0,0.1C22.9,30.8,22.5,30.8,22.2,30.8L22.2,30.8z"/>
				<path id="Fill-229" class="st5" d="M23.8,30.5c-0.2-0.9-0.4-1.4-0.7-2.3c0-0.1,0.2-0.2,0.3-0.2c0.1,0,0.2-0.1,0.3,0
					c0.4,0.8,0.7,1.5,1,2.3l0,0.1C24.4,30.3,24.1,30.4,23.8,30.5L23.8,30.5z"/>
				<path id="Fill-231" class="st5" d="M25.2,29.9c-0.4-0.8-0.7-1.3-1.1-2.2c0-0.1,0.2-0.2,0.3-0.3c0.1,0,0.2-0.1,0.3-0.1
					c0.5,0.7,0.9,1.3,1.4,2.1l0,0.1C25.8,29.6,25.5,29.8,25.2,29.9L25.2,29.9z"/>
				<path id="Fill-233" class="st5" d="M26.5,29.1c-0.5-0.8-0.9-1.2-1.4-2c0-0.1,0.2-0.2,0.2-0.3c0.1,0,0.2-0.1,0.2-0.1
					c0.7,0.6,1.1,1.2,1.7,1.8l0,0.1C27.1,28.7,26.8,28.9,26.5,29.1L26.5,29.1z"/>
				<path id="Fill-235" class="st5" d="M27.7,28c-0.7-0.7-1.1-1-1.7-1.7c-0.1-0.1,0.1-0.3,0.2-0.4c0.1-0.1,0.1-0.2,0.2-0.1
					c0.8,0.5,1.3,0.9,2,1.5l0,0.1C28.2,27.6,28,27.8,27.7,28L27.7,28z"/>
				<path id="Fill-237" class="st5" d="M28.7,26.8c-0.8-0.5-1.2-0.8-2-1.3c-0.1-0.1,0.1-0.3,0.1-0.4c0.1-0.1,0.1-0.2,0.2-0.2
					c0.8,0.4,1.5,0.7,2.2,1.1l0,0.1C29.1,26.3,28.9,26.5,28.7,26.8L28.7,26.8z"/>
				<path id="Fill-239" class="st5" d="M29.4,25.4c-0.8-0.4-1.4-0.6-2.2-1c-0.1-0.1,0-0.3,0-0.4c0.1-0.1,0.1-0.2,0.2-0.2
					c0.9,0.2,1.6,0.4,2.4,0.7l0,0.1C29.7,24.8,29.6,25.1,29.4,25.4L29.4,25.4z"/>
				<path id="Fill-241" class="st5" d="M29.9,23.9c-0.9-0.2-1.4-0.3-2.4-0.6c-0.1-0.1,0-0.3,0-0.4c0-0.1,0-0.2,0.1-0.2
					c0.9,0.1,1.6,0.2,2.5,0.3l0,0.1C30.1,23.3,30.1,23.6,29.9,23.9L29.9,23.9z"/>
				<path id="Fill-243" class="st5" d="M30.1,22.3c-0.9-0.1-1.5-0.1-2.4-0.2c-0.1-0.1-0.1-0.3-0.1-0.4c0-0.1,0-0.2,0.1-0.3
					c0.9-0.1,1.6-0.1,2.5-0.1l0,0.1C30.2,21.7,30.2,22,30.1,22.3L30.1,22.3z"/>
				<path id="Fill-245" class="st5" d="M30.1,20.7c-0.9,0.1-1.5,0.2-2.4,0.3c-0.1,0-0.1-0.2-0.2-0.4c0-0.1,0-0.2,0-0.3
					c0.9-0.3,1.6-0.4,2.4-0.6l0.1,0C30.1,20.1,30.1,20.4,30.1,20.7L30.1,20.7z"/>
				<path id="Fill-247" class="st5" d="M29.8,19.2c-0.9,0.2-1.4,0.4-2.3,0.7c-0.1,0-0.2-0.2-0.2-0.3c0-0.1-0.1-0.2,0-0.3
					c0.8-0.4,1.5-0.7,2.3-1l0.1,0C29.6,18.6,29.7,18.9,29.8,19.2L29.8,19.2z"/>
				<path id="Fill-249" class="st5" d="M29.2,17.7c-0.8,0.4-1.3,0.7-2.2,1.1c-0.1,0-0.2-0.2-0.3-0.3c0-0.1-0.1-0.2-0.1-0.3
					c0.7-0.5,1.3-0.9,2.1-1.4l0.1,0C28.9,17.1,29.1,17.4,29.2,17.7L29.2,17.7z"/>
				<path id="Fill-251" class="st5" d="M28.3,16.4c-0.8,0.5-1.2,0.9-2,1.4c-0.1,0-0.2-0.2-0.3-0.2c0-0.1-0.1-0.2-0.1-0.2
					c0.6-0.7,1.2-1.1,1.8-1.7l0.1,0C28,15.9,28.2,16.1,28.3,16.4L28.3,16.4z"/>
				<path id="Fill-253" class="st5" d="M27.3,15.2c-0.7,0.7-1,1.1-1.7,1.7c-0.1,0.1-0.3-0.1-0.4-0.2c-0.1-0.1-0.2-0.1-0.1-0.2
					c0.5-0.8,0.9-1.3,1.5-2l0.1,0C26.9,14.8,27.1,15,27.3,15.2L27.3,15.2z"/>
				<g id="Group-257" transform="translate(50.720648, 14.766693)">
					<g id="Clip-256">
					</g>
					<defs>
						<filter id="Adobe_OpacityMaskFilter_1_" filterUnits="userSpaceOnUse" x="0.7" y="0.7" width="122.6" height="12.8">
							<feColorMatrix  type="matrix" values="1 0 0 0 0  0 1 0 0 0  0 0 1 0 0  0 0 0 1 0"/>
						</filter>
					</defs>
					<mask maskUnits="userSpaceOnUse" x="0.7" y="0.7" width="122.6" height="12.8" id="mask-4_1_">
						<g class="st6">
							<polygon id="path-3_1_" class="st2" points="123.2,13.5 123.2,0.7 0.7,0.7 0.7,13.5 							"/>
						</g>
					</mask>
					<path id="Fill-255" class="st7" d="M18.9,1c0-0.1-0.1-0.1-0.2-0.1h-2.5C16.1,0.9,16,1,16,1.1l-2.4,7.5L11,1
						c0-0.1-0.1-0.2-0.2-0.2h-2C8.7,0.9,8.6,1,8.6,1L6,8.6L3.6,1.1c0-0.1-0.1-0.2-0.2-0.2H0.9c-0.1,0-0.1,0-0.2,0.1
						c0,0.1-0.1,0.1,0,0.2l3.9,12c0,0.1,0.1,0.2,0.2,0.2h2.3c0.1,0,0.2-0.1,0.2-0.2l2.5-7l2.4,7c0,0.1,0.1,0.2,0.2,0.2h2.3
						c0.1,0,0.2-0.1,0.2-0.2l3.9-12C19,1.1,19,1,18.9,1L18.9,1z M25.1,0.7c-3.5,0-6.4,2.9-6.4,6.4c0,3.5,2.9,6.4,6.4,6.4
						c3.5,0,6.4-2.9,6.4-6.4C31.5,3.5,28.6,0.7,25.1,0.7L25.1,0.7z M25.1,10.8c-2,0-3.5-1.6-3.5-3.7c0-2.1,1.6-3.7,3.5-3.7
						c2,0,3.5,1.6,3.5,3.7C28.6,9.1,27.1,10.8,25.1,10.8L25.1,10.8z M40.2,8.8c1.4-0.7,2.2-2.1,2.2-3.7c0-2.5-2-4.3-4.9-4.3H33
						c-0.1,0-0.2,0.1-0.2,0.2V13c0,0.1,0.1,0.2,0.2,0.2h2.4c0.1,0,0.2-0.1,0.2-0.2V9.5h1.6l2.7,3.7c0,0.1,0.1,0.1,0.2,0.1h2.9
						c0.1,0,0.2,0,0.2-0.1c0-0.1,0-0.2,0-0.2L40.2,8.8z M37.4,6.8h-1.8V3.6h1.8c1.1,0,2.2,0.6,2.2,1.6S38.5,6.8,37.4,6.8L37.4,6.8z
						 M52.8,10.6h-5.4V1.1c0-0.1-0.1-0.2-0.2-0.2h-2.4c-0.1,0-0.2,0.1-0.2,0.2V13c0,0.1,0.1,0.2,0.2,0.2h8c0.1,0,0.2-0.1,0.2-0.2
						v-2.2C53.1,10.7,53,10.6,52.8,10.6L52.8,10.6z M58.8,0.9h-4c-0.1,0-0.2,0.1-0.2,0.2V13c0,0.1,0.1,0.2,0.2,0.2h4
						c3.8,0,6.6-2.7,6.6-6.2C65.4,3.5,62.6,0.9,58.8,0.9L58.8,0.9z M58.8,10.6h-1.4v-7h1.4c2,0,3.7,1.5,3.7,3.5
						C62.5,9,60.9,10.6,58.8,10.6L58.8,10.6z M74.6,0.9h-4.1c-0.1,0-0.2,0.1-0.2,0.2V13c0,0.1,0.1,0.2,0.2,0.2H73
						c0.1,0,0.2-0.1,0.2-0.2V9.9h1.1c3.2,0,5.3-1.9,5.3-4.6C79.6,2.7,77.6,0.9,74.6,0.9L74.6,0.9z M74.5,7.3h-1.4V3.5h1.4
						c1.3,0,2.2,0.7,2.2,1.7C76.8,6.5,75.9,7.3,74.5,7.3L74.5,7.3z M91.9,0.9h-2.4c-0.1,0-0.2,0.1-0.2,0.2v6.5
						c0,1.9-1.1,3.1-2.7,3.1c-1.6,0-2.7-1.2-2.7-3.1V1.1c0-0.1-0.1-0.2-0.2-0.2h-2.4c-0.1,0-0.2,0.1-0.2,0.2v6.5
						c0,3.5,2.2,5.8,5.5,5.8c3.4,0,5.6-2.3,5.6-5.8V1.1C92.2,1,92.1,0.9,91.9,0.9L91.9,0.9z M102.2,10.6h-5.4V1.1
						c0-0.1-0.1-0.2-0.2-0.2h-2.4C94.1,0.9,94,1,94,1.1V13c0,0.1,0.1,0.2,0.2,0.2h8c0.1,0,0.2-0.1,0.2-0.2v-2.2
						C102.4,10.7,102.3,10.6,102.2,10.6L102.2,10.6z M123,3.6c0.1,0,0.2-0.1,0.2-0.2V1.1c0-0.1-0.1-0.2-0.2-0.2h-8.2
						c-0.1,0-0.2,0.1-0.2,0.2V13c0,0.1,0.1,0.2,0.2,0.2h8.2c0.1,0,0.2-0.1,0.2-0.2v-2.2c0-0.1-0.1-0.2-0.2-0.2h-5.6V8.5h4.9
						c0.1,0,0.2-0.1,0.2-0.2V6.1c0-0.1-0.1-0.2-0.2-0.2h-4.9V3.6H123z M109.3,5.9L109.3,5.9l-1.4-0.3c-1.1-0.2-1.6-0.6-1.6-1.2
						c0-1.1,1.4-1.3,1.9-1.3c1.3,0,2,0.5,2.1,1.6c0,0.1,0.1,0.1,0.1,0.2c0.1,0,0.1,0,0.2,0l2.2-0.8c0.1,0,0.2-0.2,0.1-0.3
						c-0.8-2.9-3.7-3.2-5-3.2c-2.8,0-4.7,1.6-4.7,4c0,2,1.2,3.2,3.6,3.7l1.9,0.4c1.2,0.2,1.4,0.7,1.4,1.1c0,0.9-1.1,1.1-1.8,1.1
						c-1.5,0-2.5-0.7-2.7-1.8c0-0.1-0.1-0.1-0.1-0.2c-0.1,0-0.1,0-0.2,0l-2.2,0.8c-0.1,0-0.2,0.2-0.1,0.3c0.5,2.2,2.5,3.5,5.2,3.5
						c2.9,0,4.9-1.6,4.9-4C113.2,7,111.1,6.3,109.3,5.9L109.3,5.9z"/>
				</g>
			</g>
		</g>
	</g>
</g>
</svg>
