<?xml version="1.0" encoding="UTF-8"?>
<svg width="30px" height="36px" viewBox="0 0 30 36" version="1.1" xmlns="http://www.w3.org/2000/svg" xmlns:xlink="http://www.w3.org/1999/xlink">
    <!-- Generator: Sketch 49.3 (51167) - http://www.bohemiancoding.com/sketch -->
    <title>icn-prototype</title>
    <desc>Created with Sketch.</desc>
    <defs>
        <path d="M30,7 L40,7 L40,23 L30,23 L30,7 Z" id="path-1"></path>
        <mask id="mask-2" maskContentUnits="userSpaceOnUse" maskUnits="objectBoundingBox" x="0" y="0" width="10" height="16" fill="white">
            <use xlink:href="#path-1"></use>
        </mask>
    </defs>
    <g id="Page-1" stroke="none" stroke-width="1" fill="none" fill-rule="evenodd">
        <g id="icn-prototype" transform="translate(-10.000000, -7.000000)">
            <rect id="Rectangle-Copy-5" x="0" y="0" width="50" height="50"></rect>
            <path d="M32,29 L32,41 L38,41 L38,29 L32,29 Z M30,27 L40,27 L40,43 L30,43 L30,27 Z" id="Rectangle-2-Copy-4" fill="#94B5BA" fill-rule="nonzero"></path>
            <use id="Rectangle-2-Copy-3" stroke="#94B5BA" mask="url(#mask-2)" stroke-width="4" stroke-dasharray="1,1" transform="translate(35.000000, 15.000000) rotate(180.000000) translate(-35.000000, -15.000000) " xlink:href="#path-1"></use>
            <path d="M12,9 L12,41 L24,41 L24,9 L12,9 Z M10,7 L26,7 L26,43 L10,43 L10,7 Z" id="Rectangle-2-Copy-5" fill="#94B5BA" fill-rule="nonzero"></path>
        </g>
    </g>
</svg>