<svg id="Layer_1" data-name="Layer 1" xmlns="http://www.w3.org/2000/svg" viewBox="0 0 86.4 86.4"><defs><style>.cls-1{fill:#fff;}</style></defs><title>icn-design</title><circle class="cls-1" cx="43.2" cy="43.2" r="5.3"/><path class="cls-1" d="M45.2,33.7c24.1-31.3.4-31.9,0.4-31.9S21.8,1.9,45.2,33.7Z" transform="translate(-1.8 -1.8)"/><path class="cls-1" d="M37.1,36.8C32.1-2.3,14.9,14,14.9,14S-1.9,30.9,37.1,36.8Z" transform="translate(-1.8 -1.8)"/><path class="cls-1" d="M33.7,44.8C2.4,20.7,1.8,44.4,1.8,44.4S1.9,68.2,33.7,44.8Z" transform="translate(-1.8 -1.8)"/><path class="cls-1" d="M36.8,52.9C-2.3,57.9,14,75.1,14,75.1S30.9,91.9,36.8,52.9Z" transform="translate(-1.8 -1.8)"/><path class="cls-1" d="M44.8,56.3c-24.1,31.3-.4,31.9-0.4,31.9S68.2,88.1,44.8,56.3Z" transform="translate(-1.8 -1.8)"/><path class="cls-1" d="M52.9,53.2C57.9,92.3,75.1,76,75.1,76S91.9,59.1,52.9,53.2Z" transform="translate(-1.8 -1.8)"/><path class="cls-1" d="M56.3,45.2c31.3,24.1,31.9.4,31.9,0.4S88.1,21.8,56.3,45.2Z" transform="translate(-1.8 -1.8)"/><path class="cls-1" d="M53.2,37.1C92.3,32.1,76,14.9,76,14.9S59.1-1.9,53.2,37.1Z" transform="translate(-1.8 -1.8)"/></svg>