<?xml version="1.0" encoding="UTF-8"?>
<svg width="20px" height="40px" viewBox="0 0 20 40" version="1.1" xmlns="http://www.w3.org/2000/svg" xmlns:xlink="http://www.w3.org/1999/xlink">
    <!-- Generator: Sketch 49.3 (51167) - http://www.bohemiancoding.com/sketch -->
    <title>icn-design</title>
    <desc>Created with Sketch.</desc>
    <defs></defs>
    <g id="Page-1" stroke="none" stroke-width="1" fill="none" fill-rule="evenodd">
        <g id="icn-design" transform="translate(-15.000000, -4.000000)">
            <rect id="Rectangle-Copy-6" x="0" y="0" width="50" height="50"></rect>
            <path d="M17,30 L17,42 L33,42 L33,30 L17,30 Z M15,28 L35,28 L35,44 L15,44 L15,28 Z M25,22 C29.418278,22 33,18.418278 33,14 C33,9.581722 29.418278,6 25,6 C20.581722,6 17,9.581722 17,14 C17,18.418278 20.581722,22 25,22 Z M25,24 C19.4771525,24 15,19.5228475 15,14 C15,8.4771525 19.4771525,4 25,4 C30.5228475,4 35,8.4771525 35,14 C35,19.5228475 30.5228475,24 25,24 Z" id="Combined-Shape-Copy" fill="#94B5BA" fill-rule="nonzero"></path>
        </g>
    </g>
</svg>