<svg id="Layer_1" data-name="Layer 1" xmlns="http://www.w3.org/2000/svg" viewBox="0 0 100 88.8"><defs><style>.cls-1{fill:#fff;}</style></defs><title>brackets</title><path class="cls-1" d="M33.9,93.6H23.5c-7,0-12.8-4.2-12.8-14.6V61.8c0-6.2-8.2-6.9-10.7-6.9V43.5c2.5,0,10.7-.7,10.7-6.9V19.4C10.7,9,16.2,4.9,23.5,4.9H33.9V16.3H29.1c-6,0-6.5,3.7-6.5,6.4V38.7c-0.1,9.3-5.7,10-9.9,10.4v0.2c4.2,0.3,9.8,1,9.9,10.3V75.8c0,2.7.4,6.4,6.5,6.4h4.9V93.6Z" transform="translate(0 -4.9)"/><path class="cls-1" d="M66.1,4.9H76.8c6.7,0,12.5,4.2,12.5,14.6V36.6c0,6.2,7.9,6.9,10.7,6.9V54.9c-2.8,0-10.7.7-10.7,6.9V79.1c0,10.4-5.5,14.5-12.8,14.5H66.1V82.2h4.9c6.1,0,6.4-3.7,6.4-6.4V59.7c0.1-9.3,5.8-10,9.9-10.4V49.1c-4.2-.3-9.8-1-9.9-10.3V22.7c0-2.7-.4-6.4-6.4-6.4H66.1V4.9Z" transform="translate(0 -4.9)"/></svg>