<?xml version="1.0" encoding="UTF-8"?>
<svg width="35px" height="40px" viewBox="0 0 35 40" version="1.1" xmlns="http://www.w3.org/2000/svg" xmlns:xlink="http://www.w3.org/1999/xlink">
    <!-- Generator: Sketch 49.3 (51167) - http://www.bohemiancoding.com/sketch -->
    <title>icn-development</title>
    <desc>Created with Sketch.</desc>
    <defs></defs>
    <g id="Page-1" stroke="none" stroke-width="1" fill="none" fill-rule="evenodd">
        <g id="icn-development" transform="translate(-8.000000, -5.000000)">
            <rect id="Rectangle-Copy-7" x="0" y="0" width="50" height="50"></rect>
            <polygon id="Line" fill="#94B5BA" fill-rule="nonzero" points="15 5.34210526 17 5.34210526 17 32.6578947 15 32.6578947"></polygon>
            <polygon id="Line" fill="#94B5BA" fill-rule="nonzero" points="15.375 7 15.375 5 23 5 23 7"></polygon>
            <polygon id="Line-Copy" fill="#94B5BA" fill-rule="nonzero" points="8.375 21 8.375 19 16 19 16 21"></polygon>
            <polygon id="Line" fill="#94B5BA" fill-rule="nonzero" points="15.375 33 15.375 31 23 31 23 33"></polygon>
            <polygon id="Line" fill="#94B5BA" fill-rule="nonzero" points="34 17.3421053 36 17.3421053 36 44.6578947 34 44.6578947"></polygon>
            <polygon id="Line" fill="#94B5BA" fill-rule="nonzero" points="28.375 19 28.375 17 36 17 36 19"></polygon>
            <polygon id="Line-Copy-2" fill="#94B5BA" fill-rule="nonzero" points="35.375 32 35.375 30 43 30 43 32"></polygon>
            <polygon id="Line" fill="#94B5BA" fill-rule="nonzero" points="28.375 45 28.375 43 36 43 36 45"></polygon>
        </g>
    </g>
</svg>