<?xml version="1.0" encoding="UTF-8"?>
<svg width="23px" height="37px" viewBox="0 0 23 37" version="1.1" xmlns="http://www.w3.org/2000/svg" xmlns:xlink="http://www.w3.org/1999/xlink">
    <!-- Generator: Sketch 49.3 (51167) - http://www.bohemiancoding.com/sketch -->
    <title>icn-strategy</title>
    <desc>Created with Sketch.</desc>
    <defs></defs>
    <g id="Page-1" stroke="none" stroke-width="1" fill="none" fill-rule="evenodd">
        <g id="icn-strategy" transform="translate(-17.000000, -6.000000)">
            <rect id="Rectangle-Copy-8" x="0" y="0" width="50" height="50"></rect>
            <path d="M39.9063591,6.09363855 C39.8070038,5.99428569 39.6546164,5.97160385 39.5309814,6.03709368 L24.1702029,14.1693332 C24.0478457,14.2341841 23.9810764,14.3702751 24.0047172,14.5066857 C24.0286775,14.6430962 24.1372974,14.7485188 24.2743503,14.7680061 L30.3624987,15.6375832 L31.2320973,21.7255816 C31.251585,21.8626311 31.3573297,21.9715678 31.4934242,21.9952081 C31.5119534,21.9984027 31.5301633,22 31.5483731,22 C31.6649798,22 31.7745582,21.935788 31.8304655,21.8300459 L39.9629054,6.46900709 C40.0283969,6.34537507 40.0057145,6.19299142 39.9063591,6.09363855 Z" id="Shape" fill="#94B5BA" fill-rule="nonzero"></path>
            <path d="M26.8371452,18.3039326 L28.2730981,19.6960674 C27.8065378,20.1773129 27.3575641,20.65533 26.9261761,21.1301034 L25.4459482,19.7851405 C25.8919979,19.2942308 26.3557305,18.8005 26.8371452,18.3039326 Z M24.1031683,21.3176986 L25.6320793,22.6070515 C25.2007143,23.1185629 24.7904073,23.6261215 24.4011509,24.1297017 L22.8187729,22.9065582 C23.2255951,22.3802533 23.6537293,21.850642 24.1031683,21.3176986 Z M21.6010019,24.563241 L23.2420617,25.7064482 C22.8614516,26.2528093 22.5065288,26.7941956 22.1772653,27.3305676 L20.4727986,26.2842439 C20.822538,25.7145167 21.1986151,25.1408623 21.6010019,24.563241 Z M19.4489518,28.0837199 L21.2209344,29.0111236 C20.9151653,29.5953541 20.6411191,30.1732008 20.3987113,30.7446245 L18.5575311,29.9635639 C18.8213287,29.3417185 19.1184971,28.7151169 19.4489518,28.0837199 Z M17.8224389,31.9530451 L19.7307003,32.5518262 C19.5368605,33.1695759 19.3817427,33.7793404 19.2651658,34.3811855 L17.3016614,34.000856 C17.4327168,33.3242639 17.6063697,32.6416383 17.8224389,31.9530451 Z M17.0307328,36.099735 L19.0267603,36.225729 C18.9871311,36.8535433 18.9915341,37.4727989 19.0398542,38.0838351 L17.0460785,38.2415008 C16.9902508,37.5355258 16.9851739,36.8214909 17.0307328,36.099735 Z M17.3805084,40.3980227 L19.3283129,39.9440872 C19.4676362,40.5419132 19.6514159,41.1326053 19.8798529,41.7164781 L18.0173295,42.4451801 C17.7540711,41.7723057 17.5417304,41.089815 17.3805084,40.3980227 Z" id="Path-2-Copy" fill="#94B5BA" fill-rule="nonzero"></path>
        </g>
    </g>
</svg>