<svg id="Layer_1" data-name="Layer 1" xmlns="http://www.w3.org/2000/svg" viewBox="0 0 371.9 35.7"><defs><style>.cls-1{fill:#fff;}</style></defs><title>logotype-full</title><path class="cls-1" d="M622,338v5.1h-2.6V338l-5-7.7h2.8l3.5,5.5,3.5-5.5H627Z" transform="translate(-553.7 -316.7)"/><path class="cls-1" d="M638.8,343.5a6.7,6.7,0,1,1,6.9-6.7A6.7,6.7,0,0,1,638.8,343.5Zm0-11.4c-2.6,0-4.2,1.9-4.2,4.7s1.7,4.7,4.2,4.7,4.2-1.9,4.2-4.7S641.3,332,638.8,332Z" transform="translate(-553.7 -316.7)"/><path class="cls-1" d="M662.5,343.1h-2.8l-3.5-5.1h-1.6v5.1H652V330.3h5c3,0,4.3,1.8,4.3,3.8a3.5,3.5,0,0,1-2.6,3.5Zm-8-6.9h2c1.6,0,2.2-.9,2.2-2a1.9,1.9,0,0,0-2.2-2h-2v4Z" transform="translate(-553.7 -316.7)"/><path class="cls-1" d="M676.6,343.1l-5.7-6v6h-2.6V330.3h2.6v5.8l5.2-5.8h2.8l-5.5,6.1,6.4,6.7h-3.2Z" transform="translate(-553.7 -316.7)"/><path class="cls-1" d="M688.8,343.4a6.8,6.8,0,0,1-4.5-1.6l0.6-2a5.8,5.8,0,0,0,3.9,1.7c1.3,0,2.3-.6,2.3-1.8s-0.6-1.6-2.7-2.1-3.7-2.1-3.7-3.9,1.7-3.6,4.4-3.6a6.5,6.5,0,0,1,3.8,1.3l-0.6,1.8A6.4,6.4,0,0,0,689,332c-1.3,0-2,.6-2,1.5s0.5,1.3,2.2,1.7,4.3,2,4.3,4.2S691.2,343.4,688.8,343.4Z" transform="translate(-553.7 -316.7)"/><path class="cls-1" d="M708.2,343.1v-5.6h-6v5.6h-2.6V330.3h2.6v4.9h6v-4.9h2.6v12.8h-2.6Z" transform="translate(-553.7 -316.7)"/><path class="cls-1" d="M717.7,343.1V330.3h2.6v12.8h-2.6Z" transform="translate(-553.7 -316.7)"/><path class="cls-1" d="M737.7,343.1h-2.8l-3.5-5.1h-1.6v5.1h-2.6V330.3h5c3,0,4.3,1.8,4.3,3.8a3.5,3.5,0,0,1-2.6,3.5Zm-8-6.9h2c1.6,0,2.2-.9,2.2-2a1.9,1.9,0,0,0-2.2-2h-2v4Z" transform="translate(-553.7 -316.7)"/><path class="cls-1" d="M743.5,343.1V330.3h8.3v2h-5.7v3h4.7v2h-4.7v3.7h5.7v2h-8.3Z" transform="translate(-553.7 -316.7)"/><path class="cls-1" d="M766.7,343.1V330.3h2.6v12.8h-2.6Z" transform="translate(-553.7 -316.7)"/><path class="cls-1" d="M785.1,343.1l-6.7-8.4v8.4h-2.3V330.3h1.8l6.7,8.4v-8.4h2.3v12.8h-1.8Z" transform="translate(-553.7 -316.7)"/><path class="cls-1" d="M799.5,332.4v10.7h-2.6V332.4h-4.3v-2h11.2v2h-4.3Z" transform="translate(-553.7 -316.7)"/><path class="cls-1" d="M809.5,343.1V330.3h8.3v2h-5.7v3h4.7v2h-4.7v3.7h5.7v2h-8.3Z" transform="translate(-553.7 -316.7)"/><path class="cls-1" d="M834.8,343.1H832l-3.5-5.1h-1.6v5.1h-2.6V330.3h5c3,0,4.3,1.8,4.3,3.8a3.5,3.5,0,0,1-2.6,3.5Zm-8-6.9h2c1.6,0,2.2-.9,2.2-2a1.9,1.9,0,0,0-2.2-2h-2v4Z" transform="translate(-553.7 -316.7)"/><path class="cls-1" d="M849.7,343.1l-1.3-3.1h-5.2l-1.3,3.1h-2.5l5.4-12.8h2l5.4,12.8h-2.6Zm-3.9-9.6-1.9,4.6h3.8Z" transform="translate(-553.7 -316.7)"/><path class="cls-1" d="M864.1,343.4a6.7,6.7,0,1,1,0-13.3,7.7,7.7,0,0,1,4.4,1.3v2.4a6.2,6.2,0,0,0-4.2-1.6,4.6,4.6,0,0,0,0,9.1,6.2,6.2,0,0,0,4.2-1.6v2.4A7.7,7.7,0,0,1,864.1,343.4Z" transform="translate(-553.7 -316.7)"/><path class="cls-1" d="M880.6,332.4v10.7H878V332.4h-4.3v-2H885v2h-4.3Z" transform="translate(-553.7 -316.7)"/><path class="cls-1" d="M890.6,343.1V330.3h2.6v12.8h-2.6Z" transform="translate(-553.7 -316.7)"/><path class="cls-1" d="M906.2,343.1h-2l-5.4-12.8h2.7l3.8,9.2,3.8-9.2h2.6Z" transform="translate(-553.7 -316.7)"/><path class="cls-1" d="M917.3,343.1V330.3h8.3v2h-5.7v3h4.7v2h-4.7v3.7h5.7v2h-8.3Z" transform="translate(-553.7 -316.7)"/><path class="cls-1" d="M596.6,321.6a3.4,3.4,0,0,0-1.4-1.9,3.6,3.6,0,0,0-4.7-2.9,3.2,3.2,0,0,0-3.1,2.3,3.1,3.1,0,0,0-.1.8h0a27.1,27.1,0,0,1-2.3,6.8,5.1,5.1,0,0,1-2.3,2.8c-3.9.7-8.1,2.7-12.4,6l-4.7,3.1-3.9-.7c-3.4-.6-2.8.7-2.8,0.7l1.1,0.7,1.3,0.5-7.1,1.2c-1.1.4,0.5,1,.5,1l11.2,0.3a15.4,15.4,0,0,0,6.8,3.1,5.4,5.4,0,0,0,2.3,1.1,2.4,2.4,0,0,0,1,2.2,4.6,4.6,0,0,0,1.3.9s1.5,1,1.4,1.6l0.4,0.2h-0.3l-1.3.8h3.3l2.9,0.2v-0.3a9.8,9.8,0,0,0-3-.7h0v-0.4l-1.6-1.8a2.5,2.5,0,0,1,.1-0.6,2.4,2.4,0,0,0,.8-1.3l0.7-.5h0.6a1.7,1.7,0,0,0,1,1.1H582a3.3,3.3,0,0,1,1,1.4H583l-1.3.8H585l2.9,0.2v-0.3a10.4,10.4,0,0,0-3.1-.7H584v-0.3l-0.9-1.1a2.2,2.2,0,0,0,.8-1.8c3.5-1.3,10.7-4.4,9.9-11.9a42.9,42.9,0,0,1-.6-10.5l0.2-1s3.3-.1,3.7.5A1.3,1.3,0,0,0,596.6,321.6Zm-17.3,30.7h0Zm-0.1,0h0Zm0,0h0Zm0.7,0h0Zm-0.2,0h0Zm0.1,0h0Zm0.4,0h0Zm-0.1,0h0Zm0.1,0h0Zm3.5-2.4h0Zm0.7,0h0Zm-0.2,0h0Zm0.2,0h0Z" transform="translate(-553.7 -316.7)"/><path class="cls-1" d="M580.1,352.3h0Z" transform="translate(-553.7 -316.7)"/><path class="cls-1" d="M580,352.3h0Z" transform="translate(-553.7 -316.7)"/><path class="cls-1" d="M579.2,352.3h0Z" transform="translate(-553.7 -316.7)"/><path class="cls-1" d="M579.5,352.3h0Z" transform="translate(-553.7 -316.7)"/><path class="cls-1" d="M584.7,349.9h0Z" transform="translate(-553.7 -316.7)"/><path class="cls-1" d="M584.7,349.9h0Z" transform="translate(-553.7 -316.7)"/><path class="cls-1" d="M584.7,349.9h0Z" transform="translate(-553.7 -316.7)"/><path class="cls-1" d="M584.1,349.9h0Z" transform="translate(-553.7 -316.7)"/><path class="cls-1" d="M584.6,349.9h0Z" transform="translate(-553.7 -316.7)"/><polygon class="cls-1" points="29.9 33.2 29.9 33.2 29.9 33.2 29.9 33.2 29.9 33.2"/><path class="cls-1" d="M583.9,349.9h0Z" transform="translate(-553.7 -316.7)"/><path class="cls-1" d="M583.8,349.9h0Z" transform="translate(-553.7 -316.7)"/><path class="cls-1" d="M584,349.9h0Z" transform="translate(-553.7 -316.7)"/><path class="cls-1" d="M584,349.9h0Z" transform="translate(-553.7 -316.7)"/></svg>