<svg id="Layer_1" data-name="Layer 1" xmlns="http://www.w3.org/2000/svg" viewBox="0 0 329.5 35.8"><defs><style>.cls-1{fill:#fff;}</style></defs><title>logotype-blog</title><path class="cls-1" d="M42.9,4.9A3.4,3.4,0,0,0,41.5,3a3.6,3.6,0,0,0-4.1-3H36.8a3.2,3.2,0,0,0-3.1,2.3,3.1,3.1,0,0,0-.1.8h0A27.1,27.1,0,0,1,31.3,10,5.1,5.1,0,0,1,29,12.8a29.4,29.4,0,0,0-12.4,6l-4.7,3.1L8,21.2c-3.4-.6-2.8.7-2.8,0.7l1.1,0.7,1.3,0.5L0.5,24.3c-1.1.4,0.5,1,.5,1l11.2,0.3A15.4,15.4,0,0,0,19,28.7a5.4,5.4,0,0,0,2.3,1.1,2.4,2.4,0,0,0,1,2.2,4.6,4.6,0,0,0,1.3.9s1.5,1,1.4,1.6l0.4,0.2H25.1l-1.3.8h3.3L30,35.7V35.4a9.8,9.8,0,0,0-3-.7h0V34.3l-1.6-1.8a2.5,2.5,0,0,1,.1-0.6,2.4,2.4,0,0,0,.8-1.3l0.7-.5h0.6a1.7,1.7,0,0,0,1,1.1H28.3a3.3,3.3,0,0,1,1,1.4h0l-1.3.8h3.3l2.9,0.2V33.3a10.4,10.4,0,0,0-3.1-.7H30.3V32.3l-0.9-1.1a2.2,2.2,0,0,0,.8-1.8c3.5-1.3,10.7-4.4,9.9-11.9A42.9,42.9,0,0,1,39.5,7l0.2-1s3.3-.1,3.7.5A1.3,1.3,0,0,0,42.9,4.9ZM25.6,35.6h0Zm-0.1,0h0Zm0,0h0Zm0.7,0h0Zm-0.2,0h0Zm0.1,0h0Zm0.4,0h0Zm-0.1,0h0Zm0.1,0h0ZM30,33.2h0Zm0.7,0h0Zm-0.2,0h0Zm0.2,0h0Z" transform="translate(-0.1 0.1)"/><path class="cls-1" d="M26.4,35.6h0Z" transform="translate(-0.1 0.1)"/><path class="cls-1" d="M26.3,35.6h0Z" transform="translate(-0.1 0.1)"/><path class="cls-1" d="M25.5,35.6h0Z" transform="translate(-0.1 0.1)"/><path class="cls-1" d="M25.8,35.6h0Z" transform="translate(-0.1 0.1)"/><path class="cls-1" d="M31,33.2h0Z" transform="translate(-0.1 0.1)"/><path class="cls-1" d="M31,33.2h0Z" transform="translate(-0.1 0.1)"/><path class="cls-1" d="M31,33.2h0Z" transform="translate(-0.1 0.1)"/><path class="cls-1" d="M30.4,33.2h0Z" transform="translate(-0.1 0.1)"/><path class="cls-1" d="M30.9,33.2h0Z" transform="translate(-0.1 0.1)"/><polygon class="cls-1" points="29.8 33.3 29.8 33.3 29.8 33.3 29.8 33.3 29.8 33.3"/><path class="cls-1" d="M30.2,33.2h0Z" transform="translate(-0.1 0.1)"/><path class="cls-1" d="M30.1,33.2h0Z" transform="translate(-0.1 0.1)"/><path class="cls-1" d="M30.3,33.2h0Z" transform="translate(-0.1 0.1)"/><path class="cls-1" d="M30.3,33.2h0Z" transform="translate(-0.1 0.1)"/><path class="cls-1" d="M67.8,15.7V26.4H65.2V15.7H60.9v-2H72.1v2H67.8Z" transform="translate(-0.1 0.1)"/><path class="cls-1" d="M86.4,26.4V20.8h-6v5.6H77.8V13.7h2.6v4.9h6V13.7H89V26.4H86.4Z" transform="translate(-0.1 0.1)"/><path class="cls-1" d="M96.1,26.4V13.7h8.3v2H98.7v3h4.6v2H98.7v3.7h5.7v2H96.1Z" transform="translate(-0.1 0.1)"/><path class="cls-1" d="M125,21.3v5.1h-2.6V21.3l-5-7.6h2.8l3.5,5.5,3.5-5.5H130Z" transform="translate(-0.1 0.1)"/><path class="cls-1" d="M141,26.7a6.7,6.7,0,1,1,6.8-6.7A6.6,6.6,0,0,1,141,26.7Zm0-11.3c-2.5,0-4.2,1.9-4.2,4.6s1.7,4.6,4.2,4.6,4.1-1.9,4.1-4.6S143.5,15.4,141,15.4Z" transform="translate(-0.1 0.1)"/><path class="cls-1" d="M164.8,26.4h-2.8l-3.5-5h-1.6v5h-2.6V13.7h5c3,0,4.3,1.8,4.3,3.8a3.5,3.5,0,0,1-2.5,3.5Zm-7.9-6.9h2c1.6,0,2.2-.8,2.2-2a1.9,1.9,0,0,0-2.2-2h-2v4Z" transform="translate(-0.1 0.1)"/><path class="cls-1" d="M178.8,26.4l-5.6-6v6h-2.6V13.7h2.6v5.8l5.1-5.8h2.8l-5.5,6,6.3,6.6h-3.2Z" transform="translate(-0.1 0.1)"/><path class="cls-1" d="M191.2,26.6a6.8,6.8,0,0,1-4.5-1.6l0.6-2a5.7,5.7,0,0,0,3.9,1.7c1.3,0,2.2-.6,2.2-1.8s-0.6-1.6-2.7-2.1-3.7-2.1-3.7-3.9,1.6-3.6,4.4-3.6a6.4,6.4,0,0,1,3.8,1.2l-0.5,1.8a6.4,6.4,0,0,0-3.3-1.1c-1.2,0-2,.5-2,1.5s0.4,1.3,2.2,1.7,4.2,2,4.2,4.2S193.6,26.6,191.2,26.6Z" transform="translate(-0.1 0.1)"/><path class="cls-1" d="M210.8,26.4V20.8h-6v5.6h-2.6V13.7h2.6v4.9h6V13.7h2.6V26.4h-2.6Z" transform="translate(-0.1 0.1)"/><path class="cls-1" d="M220.5,26.4V13.7h2.6V26.4h-2.6Z" transform="translate(-0.1 0.1)"/><path class="cls-1" d="M240.6,26.4h-2.8l-3.5-5h-1.6v5h-2.6V13.7h5c3,0,4.3,1.8,4.3,3.8a3.5,3.5,0,0,1-2.5,3.5Zm-7.9-6.9h2c1.6,0,2.2-.8,2.2-2a1.9,1.9,0,0,0-2.2-2h-2v4Z" transform="translate(-0.1 0.1)"/><path class="cls-1" d="M246.5,26.4V13.7h8.3v2H249v3h4.6v2H249v3.7h5.7v2h-8.3Z" transform="translate(-0.1 0.1)"/><path class="cls-1" d="M274.4,26.4h-5.1V13.7h4.9c2.7,0,3.8,1.5,3.8,3.3a3.3,3.3,0,0,1-1.4,2.5,3.5,3.5,0,0,1,2,3.1C278.6,24.7,277.4,26.4,274.4,26.4Zm-2.6-7.6h1.9a1.6,1.6,0,0,0,1.8-1.6,1.6,1.6,0,0,0-1.8-1.6h-1.9v3.3Zm2.1,1.8h-2.1v4h2.1c1.6,0,2.2-.9,2.2-2S275.5,20.6,273.9,20.6Z" transform="translate(-0.1 0.1)"/><path class="cls-1" d="M285.1,26.4V13.7h2.6V24.4h5.7v2h-8.3Z" transform="translate(-0.1 0.1)"/><path class="cls-1" d="M305,26.7a6.7,6.7,0,1,1,6.8-6.7A6.6,6.6,0,0,1,305,26.7Zm0-11.3c-2.5,0-4.2,1.9-4.2,4.6s1.7,4.6,4.2,4.6,4.1-1.9,4.1-4.6S307.5,15.4,305,15.4Z" transform="translate(-0.1 0.1)"/><path class="cls-1" d="M324.4,26.7a6.5,6.5,0,0,1-6.7-6.7c0-4.1,3.2-6.6,6.9-6.6a7.9,7.9,0,0,1,4.5,1.3v2.3a6.3,6.3,0,0,0-4.2-1.6,4.3,4.3,0,0,0-4.5,4.6c0,2.9,1.8,4.6,4.3,4.6a5.3,5.3,0,0,0,2.4-.5V21.8h-2.2V19.9h4.7v5.6A13,13,0,0,1,324.4,26.7Z" transform="translate(-0.1 0.1)"/></svg>