<svg id="Layer_1" data-name="Layer 1" xmlns="http://www.w3.org/2000/svg" viewBox="0 0 121.1 35.8"><defs><style>.cls-1{fill:#fff;}</style></defs><title>logotype-blog-short</title><path class="cls-1" d="M42.9,4.9A3.4,3.4,0,0,0,41.5,3a3.6,3.6,0,0,0-4.1-3H36.8a3.2,3.2,0,0,0-3.1,2.3,3.1,3.1,0,0,0-.1.8h0A27.1,27.1,0,0,1,31.3,10,5.1,5.1,0,0,1,29,12.8a29.4,29.4,0,0,0-12.4,6l-4.7,3.1L8,21.2c-3.4-.6-2.8.7-2.8,0.7l1.1,0.7,1.3,0.5L0.5,24.3c-1.1.4,0.5,1,.5,1l11.2,0.3A15.4,15.4,0,0,0,19,28.7a5.4,5.4,0,0,0,2.3,1.1,2.4,2.4,0,0,0,1,2.2,4.6,4.6,0,0,0,1.3.9s1.5,1,1.4,1.6l0.4,0.2H25.1l-1.3.8h3.3L30,35.7V35.4a9.8,9.8,0,0,0-3-.7h0V34.3l-1.6-1.8a2.5,2.5,0,0,1,.1-0.6,2.4,2.4,0,0,0,.8-1.3l0.7-.5h0.6a1.7,1.7,0,0,0,1,1.1H28.3a3.3,3.3,0,0,1,1,1.4h0l-1.3.8h3.3l2.9,0.2V33.3a10.4,10.4,0,0,0-3.1-.7H30.3V32.3l-0.9-1.1a2.2,2.2,0,0,0,.8-1.8c3.5-1.3,10.7-4.4,9.9-11.9A42.9,42.9,0,0,1,39.5,7l0.2-1s3.3-.1,3.7.5A1.3,1.3,0,0,0,42.9,4.9ZM25.6,35.6h0Zm-0.1,0h0Zm0,0h0Zm0.7,0h0Zm-0.2,0h0Zm0.1,0h0Zm0.4,0h0Zm-0.1,0h0Zm0.1,0h0ZM30,33.2h0Zm0.7,0h0Zm-0.2,0h0Zm0.2,0h0Z" transform="translate(-0.1 0.1)"/><path class="cls-1" d="M26.4,35.6h0Z" transform="translate(-0.1 0.1)"/><path class="cls-1" d="M26.3,35.6h0Z" transform="translate(-0.1 0.1)"/><path class="cls-1" d="M25.5,35.6h0Z" transform="translate(-0.1 0.1)"/><path class="cls-1" d="M25.8,35.6h0Z" transform="translate(-0.1 0.1)"/><path class="cls-1" d="M31,33.2h0Z" transform="translate(-0.1 0.1)"/><path class="cls-1" d="M31,33.2h0Z" transform="translate(-0.1 0.1)"/><path class="cls-1" d="M31,33.2h0Z" transform="translate(-0.1 0.1)"/><path class="cls-1" d="M30.4,33.2h0Z" transform="translate(-0.1 0.1)"/><path class="cls-1" d="M30.9,33.2h0Z" transform="translate(-0.1 0.1)"/><polygon class="cls-1" points="29.8 33.3 29.8 33.3 29.8 33.3 29.8 33.3 29.8 33.3"/><path class="cls-1" d="M30.2,33.2h0Z" transform="translate(-0.1 0.1)"/><path class="cls-1" d="M30.1,33.2h0Z" transform="translate(-0.1 0.1)"/><path class="cls-1" d="M30.3,33.2h0Z" transform="translate(-0.1 0.1)"/><path class="cls-1" d="M30.3,33.2h0Z" transform="translate(-0.1 0.1)"/><path class="cls-1" d="M66,26.4H60.9V13.7h4.9c2.7,0,3.8,1.5,3.8,3.3a3.3,3.3,0,0,1-1.4,2.5,3.5,3.5,0,0,1,2,3.1C70.3,24.7,69.1,26.4,66,26.4Zm-2.6-7.6h1.9a1.6,1.6,0,0,0,1.8-1.6,1.6,1.6,0,0,0-1.8-1.6H63.5v3.3Zm2.1,1.8H63.5v4h2.1c1.6,0,2.2-.9,2.2-2S67.2,20.6,65.6,20.6Z" transform="translate(-0.1 0.1)"/><path class="cls-1" d="M76.8,26.4V13.7h2.6V24.4H85v2H76.8Z" transform="translate(-0.1 0.1)"/><path class="cls-1" d="M96.7,26.7a6.7,6.7,0,1,1,6.8-6.7A6.6,6.6,0,0,1,96.7,26.7Zm0-11.3c-2.5,0-4.2,1.9-4.2,4.6s1.7,4.6,4.2,4.6,4.1-1.9,4.1-4.6S99.2,15.4,96.7,15.4Z" transform="translate(-0.1 0.1)"/><path class="cls-1" d="M116.1,26.7a6.5,6.5,0,0,1-6.7-6.7c0-4.1,3.2-6.6,6.9-6.6a7.9,7.9,0,0,1,4.5,1.3v2.3a6.3,6.3,0,0,0-4.2-1.6,4.3,4.3,0,0,0-4.5,4.6c0,2.9,1.8,4.6,4.3,4.6a5.3,5.3,0,0,0,2.4-.5V21.8h-2.2V19.9h4.7v5.6A13,13,0,0,1,116.1,26.7Z" transform="translate(-0.1 0.1)"/></svg>