<svg id="Layer_1" data-name="Layer 1" xmlns="http://www.w3.org/2000/svg" viewBox="0 0 97.5 47.6"><defs><style>.cls-1{fill:#fff;}</style></defs><title>pig</title><path class="cls-1" d="M500.8,373.2c-1.8,1.9-2,4.4-3.4,6.3a5.5,5.5,0,0,1-3.1,1.9,2,2,0,0,1-2.3-.5c-0.7-.9.3-1.5,0.7-2.1,1.3-2.2,3.3-4,3.7-6.7s-1-6-5.1-6-7.1,0-10.5-2c-1.9-1.1-4.6-1.1-6.9-.9s-1.7-2.7-3.6-2.6-2.1-2.8-2.5-4.4-0.4-2.6,2.1-2.4,4.7-2.1,7-3.3c1.1,2.9,4.1,2.4,6.2,3.3a1.4,1.4,0,0,0,1.9-.8c-7.2-.5-10-6.1-13.7-11.3,3.2-.5,5.3,1.9,8.1,1.8,0.1-1.5-1.6-1.7-1.7-2.9l0.4-.3c5.5,2.9,11,1.9,16.8.3a141.2,141.2,0,0,1,44.8-4.6h1.1c2.7,0.1,4.8,1.8,7.1,2.6s3.9-2.7,6.6-2.9c4.7-.2,7.1,2.5,6,7-0.6,2.5-2.2,4.4-3.2,6.6s-0.8,1.5-.2,2.3,1.2,0.5,2.1.1,3.6,1.6,5.9,1.1c-2.9,4.6-5.1,4.6-9.8.2a28.6,28.6,0,0,1-5.5,13.2,1.7,1.7,0,0,0-.4,1.3c1.6,5.1-1.6,9.2-3,13.7-0.7,2.2-3.7,2.6-5.5,1.7s0-2.4.8-3.4a7.8,7.8,0,0,0,1.2-9.4,3,3,0,0,0-.8-0.7,6.5,6.5,0,0,0-2.4,5.3c0,2.5-2.1,3.7-2.6,5.9s-2.4,1.2-3.8,1.1-2.2-.8-1.1-2.3l2.1-2.8c1.9-2.2,1.7-4.7,1-7.2s-1.2-1.3-1.8-.9c-5.2,3.3-10.8,1.3-16.2,1.5h-2.5c-6,.5-6.1.5-7.6,6.2a8.8,8.8,0,0,1-4.9,6.2c-0.9.4-2.3,0.7-3-.2s0.1-2.1.9-2.8S502.9,375.7,500.8,373.2ZM555,349.5c1-2.3,2-4,2.6-5.8s0.5-3-1.1-4-2.8.2-4,1.1-0.6,2.3.1,3.6S554,347.4,555,349.5Z" transform="translate(-467.4 -335.6)"/></svg>