<?xml version="1.0" encoding="utf-8"?>
<!-- Generator: Adobe Illustrator 19.2.1, SVG Export Plug-In . SVG Version: 6.00 Build 0)  -->
<svg version="1.1" id="Layer_1" xmlns="http://www.w3.org/2000/svg" xmlns:xlink="http://www.w3.org/1999/xlink" x="0px" y="0px"
	 viewBox="0 0 159.2 131.3" style="enable-background:new 0 0 159.2 131.3;" xml:space="preserve">
<style type="text/css">
	.st0{fill:#182229;}
</style>
<title>pigeon-white</title>
<path class="st0" d="M157.5,17.9c0,0-1.7-5.5-5.2-6.9c0,0-2.1-13.9-17.3-10.5c-5.3-0.1-10.1,3.5-11.5,8.6c-0.3,1-0.4,2-0.4,3v0.2
	c-0.7,4.3-2.8,12.8-8.5,25c-1.5,4.3-4.5,7.9-8.5,10.1c-14.5,2.5-29.6,10-45.4,22.1L43.5,80.9l-14.4-2.5c-12.5-2.2-10.2,2.5-10.2,2.5
	l3.9,2.6l4.8,1.9L1.4,89.7c-4.1,1.3,1.7,3.7,1.7,3.7l41.1,1.1c6,4.6,14.6,9.8,24.9,11.4c2.5,2,5.4,3.3,8.5,3.9
	c-0.5,3.2,0.9,6.3,3.5,8.2c0.4,0.4,3.3,3.2,4.7,3.4s5.4,3.6,5,6c0.4,0.4,0.9,0.7,1.4,0.9h-1.1l-4.8,2.8l4.1-0.2h7.8
	c3.5,0,7,0.2,10.5,0.6v-1c-3.5-1.5-7.2-2.4-11-2.7h-0.1v-1.4l-5.8-6.6c0-0.7,0.2-1.5,0.4-2.2c1.4-1.3,2.4-3,2.8-4.9
	c0.7-0.8,1.5-1.4,2.4-2l2.3-0.3c0.5,1.9,1.9,3.4,3.7,4.1l0.4,0.2c0,0,3.4,2.7,3.9,5h-0.2l-4.9,2.8l4.3-0.2l3.1-0.2h4.9
	c3.6,0,7.2,0.2,10.8,0.6v-1c-3.6-1.4-7.4-2.3-11.3-2.6l-3,0.4l-0.3-1.3l-3.3-4.2c1.9-1.6,3-4,2.9-6.5c12.7-4.7,39.2-16,36.3-43.6
	c-2.3-12.7-3-25.6-2.1-38.4l0.6-3.5c0,0,12-0.3,13.5,2C158.8,23.6,160.4,21.3,157.5,17.9z M94.1,130.8L94.1,130.8z M93.7,130.8
	L93.7,130.8z M93.8,130.8L93.8,130.8z M96.2,130.7L96.2,130.7z M95.5,130.7L95.5,130.7z M95.8,130.7L95.8,130.7z M97.4,130.6
	L97.4,130.6z M97.1,130.6L97.1,130.6z M97.3,130.6L97.3,130.6z M110.2,121.9L110.2,121.9z M112.8,121.8L112.8,121.8z M111.9,121.8
	L111.9,121.8z M112.6,121.8L112.6,121.8z"/>
<path class="st0" d="M96.9,130.7L96.9,130.7z"/>
<path class="st0" d="M96.6,130.7L96.6,130.7z"/>
<path class="st0" d="M93.5,130.8L93.5,130.8z"/>
<path class="st0" d="M94.6,130.8L94.6,130.8z"/>
<path class="st0" d="M113.7,121.8L113.7,121.8z"/>
<path class="st0" d="M113.8,121.8L113.8,121.8z"/>
<path class="st0" d="M113.8,121.8L113.8,121.8z"/>
<path class="st0" d="M111.4,121.9L111.4,121.9z"/>
<path class="st0" d="M113.5,121.8L113.5,121.8z"/>
<path class="st0" d="M109.9,122L109.9,122z"/>
<path class="st0" d="M110.7,121.9L110.7,121.9z"/>
<path class="st0" d="M110.5,121.9L110.5,121.9z"/>
<path class="st0" d="M111,121.9L111,121.9z"/>
<path class="st0" d="M111,121.9L111,121.9z"/>
</svg>
