<svg id="Layer_1" data-name="Layer 1" xmlns="http://www.w3.org/2000/svg" viewBox="0 0 116.3 79.1"><defs><style>.cls-1{fill:#fff;}</style></defs><title>pigeon-type</title><path class="cls-1" d="M1807.9-115.3v4.3h-2.2v-4.3l-4.2-6.5h2.4l3,4.7,3-4.7h2.3Z" transform="translate(-1801.4 189.8)"/><path class="cls-1" d="M1822.1-110.7a5.7,5.7,0,0,1-5.9-5.7,5.7,5.7,0,0,1,5.9-5.7,5.6,5.6,0,0,1,5.8,5.7A5.6,5.6,0,0,1,1822.1-110.7Zm0-9.7c-2.2,0-3.6,1.6-3.6,4s1.4,4,3.6,4,3.5-1.6,3.5-4S1824.2-120.4,1822.1-120.4Z" transform="translate(-1801.4 189.8)"/><path class="cls-1" d="M1842.2-111h-2.4l-3-4.3h-1.4v4.3h-2.2v-10.8h4.2c2.6,0,3.7,1.5,3.7,3.3a2.9,2.9,0,0,1-2.2,3Zm-6.8-5.9h1.7a1.6,1.6,0,0,0,1.9-1.7,1.6,1.6,0,0,0-1.9-1.7h-1.7v3.4Z" transform="translate(-1801.4 189.8)"/><path class="cls-1" d="M1854.1-111l-4.8-5.1v5.1h-2.2v-10.8h2.2v4.9l4.4-4.9h2.4l-4.7,5.2,5.4,5.7h-2.7Z" transform="translate(-1801.4 189.8)"/><path class="cls-1" d="M1864.4-110.8a5.8,5.8,0,0,1-3.8-1.4l0.5-1.7a4.9,4.9,0,0,0,3.3,1.5,1.6,1.6,0,0,0,1.9-1.5c0-.9-0.5-1.3-2.3-1.8s-3.2-1.8-3.2-3.3,1.4-3,3.7-3a5.5,5.5,0,0,1,3.2,1.1l-0.5,1.5a5.4,5.4,0,0,0-2.8-.9c-1.1,0-1.7.5-1.7,1.2s0.4,1.1,1.9,1.5,3.6,1.7,3.6,3.6S1866.4-110.8,1864.4-110.8Z" transform="translate(-1801.4 189.8)"/><path class="cls-1" d="M1880.9-111v-4.8h-5.1v4.8h-2.2v-10.8h2.2v4.2h5.1v-4.2h2.2V-111h-2.2Z" transform="translate(-1801.4 189.8)"/><path class="cls-1" d="M1888.9-111v-10.8h2.2V-111h-2.2Z" transform="translate(-1801.4 189.8)"/><path class="cls-1" d="M1905.8-111h-2.4l-3-4.3H1899v4.3h-2.2v-10.8h4.2c2.6,0,3.7,1.5,3.7,3.3a2.9,2.9,0,0,1-2.2,3Zm-6.8-5.9h1.7a1.6,1.6,0,0,0,1.9-1.7,1.6,1.6,0,0,0-1.9-1.7H1899v3.4Z" transform="translate(-1801.4 189.8)"/><path class="cls-1" d="M1910.7-111v-10.8h7v1.7h-4.8v2.5h3.9v1.7h-3.9v3.1h4.8v1.7h-7Z" transform="translate(-1801.4 189.8)"/><path class="cls-1" d="M1892.2-181.6s-0.8-2.5-2.4-3.1c0,0-.9-6.3-7.8-4.8a5.4,5.4,0,0,0-5.2,3.9,5.1,5.1,0,0,0-.2,1.3h0a45.2,45.2,0,0,1-3.9,11.4,8.6,8.6,0,0,1-3.8,4.6c-6.6,1.1-13.4,4.6-20.6,10l-7.8,5.2-6.6-1.1c-5.7-1-4.7,1.1-4.7,1.1l1.8,1.2,2.2,0.9-11.9,1.9c-1.9.6,0.8,1.7,0.8,1.7l18.6,0.5a25.7,25.7,0,0,0,11.3,5.2,9,9,0,0,0,3.9,1.8,4,4,0,0,0,0,.5,4,4,0,0,0,1.6,3.2,7.7,7.7,0,0,0,2.1,1.5s2.5,1.6,2.3,2.7a1.8,1.8,0,0,0,.6.4h-0.5l-2.2,1.3h5.4a44.6,44.6,0,0,1,4.8.3v-0.5a16.3,16.3,0,0,0-5-1.2H1865v-0.6l-2.6-3a4.1,4.1,0,0,1,.2-1,4,4,0,0,0,1.3-2.2l1.1-.9h1.1a2.9,2.9,0,0,0,1.7,1.8h0.2a5.4,5.4,0,0,1,1.7,2.3h-0.1l-2.2,1.3h5.6a47.7,47.7,0,0,1,4.9.3v-0.5a17.3,17.3,0,0,0-5.1-1.2l-1.4.2v-0.6l-1.5-1.9a3.7,3.7,0,0,0,1.3-2.9c5.8-2.1,17.8-7.3,16.5-19.8a71.5,71.5,0,0,1-1-17.4l0.3-1.6s5.4-.1,6.1.9S1893.5-180.1,1892.2-181.6Zm-28.8,51.2h0Zm-0.2,0h0Zm0,0h0Zm1.1-.1h0Zm-0.3,0h0Zm0.1,0h0Zm0.7,0h0Zm-0.1,0h0Zm0.1,0h0Zm5.8-4h0Zm1.2-.1h0Zm-0.4,0h0Zm0.3,0h0Z" transform="translate(-1801.4 189.8)"/><path class="cls-1" d="M1864.7-130.4h0Z" transform="translate(-1801.4 189.8)"/><path class="cls-1" d="M1864.6-130.4h0Z" transform="translate(-1801.4 189.8)"/><path class="cls-1" d="M1863.2-130.4h0Z" transform="translate(-1801.4 189.8)"/><path class="cls-1" d="M1863.7-130.4h0Z" transform="translate(-1801.4 189.8)"/><path class="cls-1" d="M1872.4-134.5h0Z" transform="translate(-1801.4 189.8)"/><path class="cls-1" d="M1872.4-134.5h0Z" transform="translate(-1801.4 189.8)"/><path class="cls-1" d="M1872.4-134.5h0Z" transform="translate(-1801.4 189.8)"/><path class="cls-1" d="M1871.3-134.4h0Z" transform="translate(-1801.4 189.8)"/><path class="cls-1" d="M1872.2-134.5h0Z" transform="translate(-1801.4 189.8)"/><path class="cls-1" d="M1870.6-134.4h0Z" transform="translate(-1801.4 189.8)"/><path class="cls-1" d="M1871-134.4h0Z" transform="translate(-1801.4 189.8)"/><path class="cls-1" d="M1870.9-134.4h0Z" transform="translate(-1801.4 189.8)"/><path class="cls-1" d="M1871.1-134.4h0Z" transform="translate(-1801.4 189.8)"/><path class="cls-1" d="M1871.1-134.4h0Z" transform="translate(-1801.4 189.8)"/></svg>