<svg id="Layer_1" data-name="Layer 1" xmlns="http://www.w3.org/2000/svg" viewBox="0 0 159.2 131.3"><defs><style>.cls-1{fill:#fff;}</style></defs><title>pigeon-white</title><path class="cls-1" d="M7142.3,170.9s-1.7-5.5-5.2-6.9c0,0-2.1-13.9-17.3-10.5a11.8,11.8,0,0,0-11.5,8.6,11.3,11.3,0,0,0-.4,3v0.2c-0.7,4.3-2.8,12.8-8.5,25a18.9,18.9,0,0,1-8.5,10.1c-14.5,2.5-29.6,10-45.4,22.1l-17.2,11.4-14.4-2.5c-12.5-2.2-10.2,2.5-10.2,2.5l3.9,2.6,4.8,1.9-26.2,4.3c-4.1,1.3,1.7,3.7,1.7,3.7l41.1,1.1c6,4.6,14.6,9.8,24.9,11.4a19.9,19.9,0,0,0,8.5,3.9,8.6,8.6,0,0,0,3.5,8.2c0.4,0.4,3.3,3.2,4.7,3.4s5.4,3.6,5,6a4,4,0,0,0,1.4.9h-1.1l-4.8,2.8,4.1-.2h7.8a98.3,98.3,0,0,1,10.5.6v-1a36,36,0,0,0-11-2.7h-0.1v-1.4l-5.8-6.6a9.1,9.1,0,0,1,.4-2.2,8.8,8.8,0,0,0,2.8-4.9,12.8,12.8,0,0,1,2.4-2l2.3-.3a6.4,6.4,0,0,0,3.7,4.1l0.4,0.2s3.4,2.7,3.9,5h-0.2l-4.9,2.8,4.3-.2,3.1-.2h4.9a105.1,105.1,0,0,1,10.8.6v-1a38.2,38.2,0,0,0-11.3-2.6l-3,.4-0.3-1.3-3.3-4.2a8.1,8.1,0,0,0,2.9-6.5c12.7-4.7,39.2-16,36.3-43.6a157.5,157.5,0,0,1-2.1-38.4l0.6-3.5s12-.3,13.5,2C7143.6,176.6,7145.2,174.3,7142.3,170.9Zm-63.4,112.9h0Zm-0.4,0h0Zm0.1,0h0Zm2.4-.1h0Zm-0.7,0h0Zm0.3,0h0Zm1.6-.1h0Zm-0.3,0h0Zm0.2,0h0Zm12.9-8.7h0Zm2.6-.1h0Zm-0.9,0h0Zm0.7,0h0Z" transform="translate(-6984.8 -153)"/><path class="cls-1" d="M7081.7,283.7h0Z" transform="translate(-6984.8 -153)"/><path class="cls-1" d="M7081.4,283.7h0Z" transform="translate(-6984.8 -153)"/><path class="cls-1" d="M7078.3,283.8h0Z" transform="translate(-6984.8 -153)"/><path class="cls-1" d="M7079.4,283.8h0Z" transform="translate(-6984.8 -153)"/><path class="cls-1" d="M7098.5,274.8h0Z" transform="translate(-6984.8 -153)"/><path class="cls-1" d="M7098.6,274.8h0Z" transform="translate(-6984.8 -153)"/><path class="cls-1" d="M7098.6,274.8h0Z" transform="translate(-6984.8 -153)"/><path class="cls-1" d="M7096.2,274.9h0Z" transform="translate(-6984.8 -153)"/><path class="cls-1" d="M7098.3,274.8h0Z" transform="translate(-6984.8 -153)"/><path class="cls-1" d="M7094.7,275h0Z" transform="translate(-6984.8 -153)"/><path class="cls-1" d="M7095.5,274.9h0Z" transform="translate(-6984.8 -153)"/><path class="cls-1" d="M7095.3,274.9h0Z" transform="translate(-6984.8 -153)"/><path class="cls-1" d="M7095.8,274.9h0Z" transform="translate(-6984.8 -153)"/><path class="cls-1" d="M7095.8,274.9h0Z" transform="translate(-6984.8 -153)"/></svg>