<svg id="Layer_1" data-name="Layer 1" xmlns="http://www.w3.org/2000/svg" viewBox="0 0 82.4 104.6"><defs><style>.cls-1{fill:#162128;opacity:0.5;}.cls-2{fill:#cc2829;}.cls-3{fill:#e02f38;}.cls-4{fill:#fff;}</style></defs><title>shield-red</title><polygon class="cls-1" points="41.2 0 0 8.2 0 75.3 41.2 104.6 82.4 75.3 82.4 8.2 41.2 0"/><polygon class="cls-2" points="41.2 6.6 6 13.6 6 70.9 41.2 96 76.4 70.9 76.4 13.6 41.2 6.6"/><polygon class="cls-3" points="41.2 6.6 6 13.6 6 14.2 76.4 70.4 76.4 13.6 41.2 6.6"/><polygon class="cls-4" points="41.2 64.4 44.2 62.2 38.1 62.2 41.2 64.4"/><polygon class="cls-4" points="44.2 62.2 44.2 62 44 62.2 44.2 62.2"/><polygon class="cls-4" points="38.1 62.2 38.4 62.2 38.1 62 38.1 62.2"/><polygon class="cls-4" points="56 32.2 50.3 31 41.3 45.2 32.9 30.8 26.4 32.2 38.1 50.2 38.1 62 38.4 62.2 44 62.2 44.2 62 44.2 50.2 56 32.2"/></svg>