<svg id="Layer_1" data-name="Layer 1" xmlns="http://www.w3.org/2000/svg" viewBox="0 0 70.4 89.4"><defs><style>.cls-1{fill:#cc2829;}.cls-2{fill:#e02f38;}.cls-3{fill:#fff;}</style></defs><title>shield-red-small</title><polygon class="cls-1" points="35.2 0 0 7 0 64.3 35.2 89.4 70.4 64.3 70.4 7 35.2 0"/><polygon class="cls-2" points="35.2 0 0 7 0 7.6 70.4 63.8 70.4 7 35.2 0"/><polygon class="cls-3" points="35.2 57.8 38.2 55.6 32.1 55.6 35.2 57.8"/><polygon class="cls-3" points="38.2 55.6 38.2 55.4 38 55.6 38.2 55.6"/><polygon class="cls-3" points="32.1 55.6 32.4 55.6 32.1 55.4 32.1 55.6"/><polygon class="cls-3" points="50 25.6 44.3 24.4 35.3 38.6 26.9 24.2 20.4 25.6 32.1 43.6 32.1 55.4 32.4 55.6 38 55.6 38.2 55.4 38.2 43.6 50 25.6"/></svg>