<?xml version="1.0" encoding="UTF-8"?>
<svg width="119px" height="62px" viewBox="0 0 119 62" version="1.1" xmlns="http://www.w3.org/2000/svg" xmlns:xlink="http://www.w3.org/1999/xlink">
    <!-- Generator: Sketch 49.3 (51167) - http://www.bohemiancoding.com/sketch -->
    <title>Group 3</title>
    <desc>Created with Sketch.</desc>
    <defs></defs>
    <g id="V2" stroke="none" stroke-width="1" fill="none" fill-rule="evenodd">
        <g id="1.-MD---Template-Name-Copy-4" transform="translate(-540.000000, -52.000000)" fill="#FFFFFF">
            <g id="Group-Copy" transform="translate(540.000000, 52.000000)">
                <g id="Group-2">
                    <g id="Group-3">
                        <path d="M11.5750004,50.2 L7.34500042,56.68 L7.34500042,61 L5.14900042,61 L5.14900042,56.68 L0.91900042,50.2 L3.31300042,50.2 L6.28300042,54.898 L9.25300042,50.2 L11.5750004,50.2 Z M26.5950003,55.6 C26.5950003,58.912 24.0570003,61.306 20.7630003,61.306 C17.4510003,61.306 14.8770003,58.912 14.8770003,55.6 C14.8770003,52.288 17.4510003,49.894 20.7630003,49.894 C24.0570003,49.894 26.5950003,52.288 26.5950003,55.6 Z M24.2910003,55.6 C24.2910003,53.26 22.8870003,51.64 20.7630003,51.64 C18.6030003,51.64 17.1810003,53.26 17.1810003,55.6 C17.1810003,57.94 18.6030003,59.56 20.7630003,59.56 C22.8870003,59.56 24.2910003,57.94 24.2910003,55.6 Z M41.1470002,60.928 C40.7330002,61.054 40.2650002,61.126 39.8690002,61.126 C38.5730002,61.126 37.4750002,60.586 36.7550002,59.002 L35.6030002,56.698 L34.3430002,56.698 L34.3430002,61 L32.1470002,61 L32.1470002,50.2 L36.3950002,50.2 C38.9510002,50.2 40.0490002,51.712 40.0490002,53.458 C40.0490002,54.988 39.1850002,56.176 37.6730002,56.518 L38.7350002,58.372 C39.2570002,59.326 39.7790002,59.632 40.5350002,59.632 C40.7510002,59.632 40.9310002,59.614 41.1470002,59.542 L41.1470002,60.928 Z M34.3430002,51.766 L34.3430002,55.15 L36.0350002,55.15 C37.4030002,55.15 37.8890002,54.43 37.8890002,53.476 C37.8890002,52.504 37.4030002,51.766 36.0350002,51.766 L34.3430002,51.766 Z M56.0770001,61 L53.3950001,61 L49.2550001,56.32 L48.4630001,57.166 L48.4630001,61 L46.2670001,61 L46.2670001,50.2 L48.4630001,50.2 L48.4630001,54.988 L52.9630001,50.2 L55.3570001,50.2 L50.7130001,55.024 L56.0770001,61 Z M67.803,57.886 C67.803,60.208 65.895,61.216 63.861,61.216 C62.061,61.216 60.765,60.514 60.027,59.866 L60.531,58.138 C61.251,58.822 62.385,59.596 63.861,59.596 C64.941,59.596 65.769,59.056 65.769,58.102 C65.769,57.202 65.265,56.77 63.501,56.302 C61.233,55.744 60.333,54.538 60.333,52.99 C60.333,51.226 61.737,49.948 64.059,49.948 C65.391,49.948 66.579,50.452 67.299,51.01 L66.831,52.54 C66.075,52.036 64.995,51.604 64.041,51.604 C62.979,51.604 62.349,52.072 62.349,52.846 C62.349,53.476 62.745,53.944 64.203,54.322 C66.723,54.952 67.803,56.014 67.803,57.886 Z M82.7869999,61 L80.5909999,61 L80.5909999,56.23 L75.4969999,56.23 L75.4969999,61 L73.3009999,61 L73.3009999,50.2 L75.4969999,50.2 L75.4969999,54.376 L80.5909999,54.376 L80.5909999,50.2 L82.7869999,50.2 L82.7869999,61 Z M91.0389998,61 L88.8429998,61 L88.8429998,50.2 L91.0389998,50.2 L91.0389998,61 Z M106.095,60.928 C105.681,61.054 105.213,61.126 104.817,61.126 C103.521,61.126 102.423,60.586 101.703,59.002 L100.551,56.698 L99.2909997,56.698 L99.2909997,61 L97.0949997,61 L97.0949997,50.2 L101.343,50.2 C103.899,50.2 104.997,51.712 104.997,53.458 C104.997,54.988 104.133,56.176 102.621,56.518 L103.683,58.372 C104.205,59.326 104.727,59.632 105.483,59.632 C105.699,59.632 105.879,59.614 106.095,59.542 L106.095,60.928 Z M99.2909997,51.766 L99.2909997,55.15 L100.983,55.15 C102.351,55.15 102.837,54.43 102.837,53.476 C102.837,52.504 102.351,51.766 100.983,51.766 L99.2909997,51.766 Z M118.253,61 L111.215,61 L111.215,50.2 L118.253,50.2 L118.253,51.91 L113.411,51.91 L113.411,54.448 L117.353,54.448 L117.353,56.158 L113.411,56.158 L113.411,59.29 L118.253,59.29 L118.253,61 Z" id="YORKSHIRE"></path>
                        <path d="M77.6127544,3.95430534 C77.6127544,3.95430534 77.2393135,2.74170568 76.4704646,2.43304395 C76.4704646,2.43304395 76.0091552,-0.631526081 72.6701541,0.118080977 C71.4977263,0.103925299 70.4618209,0.881429044 70.1439362,2.01414589 C70.0852282,2.22966658 70.0556737,2.45213416 70.0560678,2.67556388 L70.0560678,2.71965842 C69.902298,3.66769087 69.4409886,5.54170852 68.1888632,8.23147502 C67.8533609,9.17484956 67.1904982,9.96536033 66.3216586,10.4582489 C63.1364273,11.0094306 59.8193934,12.6629756 56.3485896,15.3306948 L52.5702463,17.8440832 L49.4069821,17.2929015 C46.661093,16.8078617 47.1663366,17.8440832 47.1663366,17.8440832 L48.023054,18.4173121 L49.0774754,18.8362102 L43.3220919,19.7842426 C42.4214403,20.0708571 43.6955328,20.5999915 43.6955328,20.5999915 L52.724016,20.8425114 C54.0420428,21.8566857 55.9312145,23.0031435 58.193827,23.3558998 C58.7393366,23.7873113 59.3794119,24.0820645 60.0610316,24.2157432 C59.961769,24.9150605 60.2580686,25.6117811 60.8298805,26.023619 C60.917749,26.1118081 61.5547952,26.7291316 61.8623348,26.7732261 C62.1698744,26.8173206 63.0485589,27.5669277 62.9606904,28.0960621 C63.0482079,28.1831139 63.1529889,28.2507188 63.26823,28.2944875 L63.0265918,28.2944875 L61.9721704,28.9118109 L62.872822,28.8677164 L64.5862568,28.8677164 C65.3569068,28.8704701 66.1268574,28.9146278 66.8928036,29 L66.8928036,28.7795273 C66.1236849,28.4543767 65.3081323,28.2534652 64.4764212,28.1842511 L64.4544541,28.1842511 L64.4544541,27.8755894 L63.1803616,26.4204698 C63.1896725,26.2557793 63.2191847,26.0928697 63.26823,25.93543 C63.5858673,25.6528627 63.8020136,25.2732264 63.8833092,24.8551139 C64.0404481,24.6870784 64.2175034,24.5389939 64.4105199,24.4141686 L64.9157634,24.3480268 C65.0365554,24.7571936 65.3353624,25.0895122 65.7285466,25.2519647 L65.8164151,25.2960592 C65.8164151,25.2960592 66.5632969,25.8913354 66.6731324,26.3984226 L66.6291982,26.3984226 L65.5528097,27.015746 L66.4973955,26.9716515 L67.178376,26.927557 L68.2547645,26.927557 C69.0473187,26.9307522 69.8391832,26.9749052 70.6272127,27.0598406 L70.6272127,26.8393679 C69.8336679,26.5226332 68.996599,26.3293305 68.144929,26.266139 L67.4859156,26.354328 L67.4200143,26.0677136 L66.6950996,25.1417284 C67.1163888,24.7882794 67.3514875,24.2594115 67.3321458,23.7086561 C70.1219691,22.6724345 75.9432539,20.1810934 75.3062076,14.0960479 C74.8084435,11.3035052 74.6535191,8.46026528 74.8448983,5.62989758 L74.9767009,4.85824326 C74.9767009,4.85824326 77.6127544,4.79210146 77.9422611,5.29918859 C77.8983269,5.21099952 78.2498007,4.70391239 77.6127544,3.95430534 Z" id="Shape" fill-rule="nonzero"></path>
                    </g>
                </g>
            </g>
        </g>
    </g>
</svg>